<svg version="1.1" viewBox="0.0 0.0 96.0 96.0" fill="none" stroke="none" stroke-linecap="square"
	stroke-miterlimit="10" xmlns:xlink="http://www.w3.org/1999/xlink"
	xmlns="http://www.w3.org/2000/svg">
	<clipPath id="p.0">
		<path d="m0 0l96.0 0l0 96.0l-96.0 0l0 -96.0z" clip-rule="nonzero" />
	</clipPath>
	<g clip-path="url(#p.0)">
		<path fill="#000000" fill-opacity="0.0" d="m0 0l96.0 0l0 96.0l-96.0 0z" fill-rule="evenodd" />
		<path fill="#000000" fill-opacity="0.0"
			d="m26.177465 29.142319c6.270029 -0.21268845 36.238556 -4.4111443 37.62017 -1.2761307c1.3816223 3.1350155 -29.808868 16.525826 -29.33046 20.086216c0.478405 3.5603905 27.126598 -0.63692474 32.200897 1.2761307c5.074295 1.9130554 -6.6435165 6.296829 -1.7551041 10.202198c4.888405 3.905365 25.904633 11.025009 31.085564 13.230011"
			fill-rule="evenodd" />
		<path stroke="#ffffff" stroke-width="1.0" stroke-linejoin="round" stroke-linecap="butt"
			d="m26.177465 29.142319c6.270029 -0.21268845 36.238556 -4.4111443 37.62017 -1.2761307c1.3816223 3.1350155 -29.808868 16.525826 -29.33046 20.086216c0.478405 3.5603905 27.126598 -0.63692474 32.200897 1.2761307c5.074295 1.9130554 -6.6435165 6.296829 -1.7551041 10.202198c4.888405 3.905365 25.904633 11.025009 31.085564 13.230011"
			fill-rule="evenodd" />
		<path fill="#000000" fill-opacity="0.0"
			d="m4.187809 21.861412l10.296048 10.124399l15.988009 -5.4689693l1.9208069 -14.303383l-10.296047 -10.124401l-15.988009 5.4689703z"
			fill-rule="evenodd" />
		<path stroke="#666666" stroke-width="8.0" stroke-linejoin="round" stroke-linecap="butt"
			d="m4.187809 21.861412l10.296048 10.124399l15.988009 -5.4689693l1.9208069 -14.303383l-10.296047 -10.124401l-15.988009 5.4689703z"
			fill-rule="evenodd" />
		<path fill="#000000" fill-opacity="0.0"
			d="m23.947872 29.140938c-1.9923134 -1.8862553 -13.416471 12.329079 -13.708988 17.0584c-0.29251766 4.7293243 9.66905 14.160595 11.953882 11.317528c2.284832 -2.8430672 3.7474194 -26.489674 1.755106 -28.375927z"
			fill-rule="evenodd" />
		<path stroke="#ff9900" stroke-width="2.0" stroke-linejoin="round" stroke-linecap="butt"
			d="m23.947872 29.140938c-1.9923134 -1.8862553 -13.416471 12.329079 -13.708988 17.0584c-0.29251766 4.7293243 9.66905 14.160595 11.953882 11.317528c2.284832 -2.8430672 3.7474194 -26.489674 1.755106 -28.375927z"
			fill-rule="evenodd" />
		<path fill="#000000" fill-opacity="0.0"
			d="m24.424496 28.82332c0.5576668 -3.7993088 9.455791 -1.6752758 10.677753 2.5488396c1.2219582 4.2241154 -1.5663681 23.22066 -3.345993 22.795855c-1.7796249 -0.4248085 -7.8894253 -21.545383 -7.3317604 -25.344694z"
			fill-rule="evenodd" />
		<path stroke="#ff9900" stroke-width="2.0" stroke-linejoin="round" stroke-linecap="butt"
			d="m24.424496 28.82332c0.5576668 -3.7993088 9.455791 -1.6752758 10.677753 2.5488396c1.2219582 4.2241154 -1.5663681 23.22066 -3.345993 22.795855c-1.7796249 -0.4248085 -7.8894253 -21.545383 -7.3317604 -25.344694z"
			fill-rule="evenodd" />
		<path fill="#000000" fill-opacity="0.0"
			d="m23.78662 29.14223c-2.7626686 -0.531435 -10.067058 13.683901 -8.765268 17.058401c1.3017902 3.374504 15.115126 6.031681 16.576004 3.188614c1.4608765 -2.8430672 -5.048069 -19.71558 -7.8107357 -20.247015z"
			fill-rule="evenodd" />
		<path stroke="#ff9900" stroke-width="2.0" stroke-linejoin="round" stroke-linecap="butt"
			d="m23.78662 29.14223c-2.7626686 -0.531435 -10.067058 13.683901 -8.765268 17.058401c1.3017902 3.374504 15.115126 6.031681 16.576004 3.188614c1.4608765 -2.8430672 -5.048069 -19.71558 -7.8107357 -20.247015z"
			fill-rule="evenodd" />
	</g>
</svg>