<svg version="1.1" viewBox="0.0 0.0 96.0 96.0" fill="none" stroke="none" stroke-linecap="square" stroke-miterlimit="10" xmlns:xlink="http://www.w3.org/1999/xlink" xmlns="http://www.w3.org/2000/svg"><clipPath id="p.0"><path d="m0 0l96.0 0l0 96.0l-96.0 0l0 -96.0z" clip-rule="nonzero"/></clipPath><g clip-path="url(#p.0)"><path fill="#000000" fill-opacity="0.0" d="m0 0l96.0 0l0 96.0l-96.0 0z" fill-rule="evenodd"/><path fill="#000000" fill-opacity="0.0" d="m34.128044 58.562828c-2.304821 0.7779732 -4.0222473 15.786148 -2.060913 18.009811c1.9613342 2.2236633 13.485432 -1.6661835 13.828915 -4.667824c0.3434868 -3.0016327 -9.463184 -14.119957 -11.768002 -13.341988z" fill-rule="evenodd"/><path stroke="#cc0000" stroke-width="1.0" stroke-linejoin="round" stroke-linecap="butt" d="m34.128044 58.562828c-2.304821 0.7779732 -4.0222473 15.786148 -2.060913 18.009811c1.9613342 2.2236633 13.485432 -1.6661835 13.828915 -4.667824c0.3434868 -3.0016327 -9.463184 -14.119957 -11.768002 -13.341988z" fill-rule="evenodd"/><path fill="#000000" fill-opacity="0.0" d="m34.399338 58.58262c1.0796661 -0.3246498 -0.6787529 -2.2803612 1.6891594 -0.71606064c2.3679085 1.5642967 13.504719 7.624943 12.518303 10.101856c-0.98641586 2.4769058 -15.27076 6.118599 -18.436808 4.759613c-3.1660519 -1.3589935 -1.2643852 -10.555996 -0.559494 -12.913563c0.7048912 -2.3575668 3.7091732 -0.90719604 4.7888393 -1.2318459z" fill-rule="evenodd"/><path stroke="#cc0000" stroke-width="1.0" stroke-linejoin="round" stroke-linecap="butt" d="m34.399338 58.58262c1.0796661 -0.3246498 -0.6787529 -2.2803612 1.6891594 -0.71606064c2.3679085 1.5642967 13.504719 7.624943 12.518303 10.101856c-0.98641586 2.4769058 -15.27076 6.118599 -18.436808 4.759613c-3.1660519 -1.3589935 -1.2643852 -10.555996 -0.559494 -12.913563c0.7048912 -2.3575668 3.7091732 -0.90719604 4.7888393 -1.2318459z" fill-rule="evenodd"/><path fill="#000000" fill-opacity="0.0" d="m34.64261 58.211044c1.8468666 -2.0667267 4.79475 -4.510868 7.1546288 -2.2347412c2.3598785 2.2761269 8.851517 13.824776 7.0046463 15.891502c-1.8468666 2.0667343 -15.725979 -1.215004 -18.085857 -3.4911346c-2.3598785 -2.276123 2.0797157 -8.098896 3.9265823 -10.165627z" fill-rule="evenodd"/><path stroke="#cc0000" stroke-width="1.0" stroke-linejoin="round" stroke-linecap="butt" d="m34.64261 58.211044c1.8468666 -2.0667267 4.79475 -4.510868 7.1546288 -2.2347412c2.3598785 2.2761269 8.851517 13.824776 7.0046463 15.891502c-1.8468666 2.0667343 -15.725979 -1.215004 -18.085857 -3.4911346c-2.3598785 -2.276123 2.0797157 -8.098896 3.9265823 -10.165627z" fill-rule="evenodd"/><path fill="#000000" fill-opacity="0.0" d="m49.89534 57.435696c-0.59098816 -1.0398064 -3.505249 -2.712597 -3.545929 -6.238846c-0.040683746 -3.526245 2.7515297 -12.432194 3.301834 -14.918636" fill-rule="evenodd"/><path stroke="#000000" stroke-width="1.0" stroke-linejoin="round" stroke-linecap="butt" d="m49.89534 57.435696c-0.59098816 -1.0398064 -3.505249 -2.712597 -3.545929 -6.238846c-0.040683746 -3.526245 2.7515297 -12.432194 3.301834 -14.918636" fill-rule="evenodd"/><path fill="#000000" fill-opacity="0.0" d="m47.28967 38.472572l9.7215 3.4255638l1.5018768 12.015018l-8.577705 5.7247734l-9.7215 -3.4255638l-1.5018768 -12.015018z" fill-rule="evenodd"/><path stroke="#999999" stroke-width="4.0" stroke-linejoin="round" stroke-linecap="butt" d="m47.28967 38.472572l9.7215 3.4255638l1.5018768 12.015018l-8.577705 5.7247734l-9.7215 -3.4255638l-1.5018768 -12.015018z" fill-rule="evenodd"/><path fill="#000000" fill-opacity="0.0" d="m48.795277 30.898586c-1.1618576 -1.019247 -5.401577 -2.466755 -6.9711304 -6.115486c-1.5695534 -3.6487312 -0.7340317 -13.127296 -2.4461937 -15.776902c-1.712162 -2.6496067 -6.5223083 -0.10061264 -7.826771 -0.12073517" fill-rule="evenodd"/><path stroke="#000000" stroke-width="1.0" stroke-linejoin="round" stroke-linecap="butt" d="m48.795277 30.898586c-1.1618576 -1.019247 -5.401577 -2.466755 -6.9711304 -6.115486c-1.5695534 -3.6487312 -0.7340317 -13.127296 -2.4461937 -15.776902c-1.712162 -2.6496067 -6.5223083 -0.10061264 -7.826771 -0.12073517" fill-rule="evenodd"/><path fill="#000000" fill-opacity="0.0" d="m50.62992 26.984251c3.2405968 2.0380592 14.6132965 11.494753 19.443573 12.228346c4.830269 0.7335968 8.335518 -5.6867867 9.538055 -7.826771c1.2025375 -2.1399822 -1.9356995 -4.177603 -2.3228378 -5.0131226" fill-rule="evenodd"/><path stroke="#000000" stroke-width="1.0" stroke-linejoin="round" stroke-linecap="butt" d="m50.62992 26.984251c3.2405968 2.0380592 14.6132965 11.494753 19.443573 12.228346c4.830269 0.7335968 8.335518 -5.6867867 9.538055 -7.826771c1.2025375 -2.1399822 -1.9356995 -4.177603 -2.3228378 -5.0131226" fill-rule="evenodd"/><path fill="#000000" fill-opacity="0.0" d="m43.047245 35.787403c0.020557404 2.181099 2.5489922 10.253281 0.12335968 13.086613c-2.4256363 2.833332 -12.230972 3.2611542 -14.677166 3.9133873" fill-rule="evenodd"/><path stroke="#000000" stroke-width="1.0" stroke-linejoin="round" stroke-linecap="butt" d="m43.047245 35.787403c0.020557404 2.181099 2.5489922 10.253281 0.12335968 13.086613c-2.4256363 2.833332 -12.230972 3.2611542 -14.677166 3.9133873" fill-rule="evenodd"/><path fill="#000000" fill-opacity="0.0" d="m53.076714 36.889763c-0.44837952 2.180664 -6.27734 10.3324585 -2.6902885 13.083992c3.5870514 2.7515297 20.177166 2.8543282 24.212597 3.4251938" fill-rule="evenodd"/><path stroke="#000000" stroke-width="1.0" stroke-linejoin="round" stroke-linecap="butt" d="m53.076714 36.889763c-0.44837952 2.180664 -6.27734 10.3324585 -2.6902885 13.083992c3.5870514 2.7515297 20.177166 2.8543282 24.212597 3.4251938" fill-rule="evenodd"/><path fill="#000000" fill-opacity="0.0" d="m19.20035 27.471483c-2.4256344 -0.18328857 -9.864392 12.9641285 -8.926509 15.776903c0.9378824 2.8127747 13.066054 3.7292213 14.553805 1.0997391c1.487751 -2.629486 -3.201662 -16.693352 -5.6272964 -16.876642z" fill-rule="evenodd"/><path stroke="#cc0000" stroke-width="1.0" stroke-linejoin="round" stroke-linecap="butt" d="m19.20035 27.471483c-2.4256344 -0.18328857 -9.864392 12.9641285 -8.926509 15.776903c0.9378824 2.8127747 13.066054 3.7292213 14.553805 1.0997391c1.487751 -2.629486 -3.201662 -16.693352 -5.6272964 -16.876642z" fill-rule="evenodd"/><path fill="#000000" fill-opacity="0.0" d="m19.442455 27.595537c1.1207352 0.12248421 0.26509285 -2.3643913 1.8346462 0c1.5695534 2.3643913 9.457567 12.290903 7.582676 14.186354c-1.8748894 1.8954468 -16.447506 -0.3267746 -18.83202 -2.813652c-2.3845148 -2.4868736 2.9558172 -10.212158 4.524934 -12.107609c1.5691156 -1.8954506 3.7690287 0.61242294 4.889764 0.73490715z" fill-rule="evenodd"/><path stroke="#cc0000" stroke-width="1.0" stroke-linejoin="round" stroke-linecap="butt" d="m19.442455 27.595537c1.1207352 0.12248421 0.26509285 -2.3643913 1.8346462 0c1.5695534 2.3643913 9.457567 12.290903 7.582676 14.186354c-1.8748894 1.8954468 -16.447506 -0.3267746 -18.83202 -2.813652c-2.3845148 -2.4868736 2.9558172 -10.212158 4.524934 -12.107609c1.5691156 -1.8954506 3.7690287 0.61242294 4.889764 0.73490715z" fill-rule="evenodd"/><path fill="#000000" fill-opacity="0.0" d="m19.811481 27.348507c2.507 -1.1819763 6.1749783 -2.2817135 7.459318 0.73490906c1.2843399 3.0166225 2.7537174 16.18285 0.24671936 17.36483c-2.507 1.1819763 -14.004375 -7.256344 -15.288714 -10.272968c-1.2843399 -3.0166206 5.075679 -6.6447926 7.582677 -7.826771z" fill-rule="evenodd"/><path stroke="#cc0000" stroke-width="1.0" stroke-linejoin="round" stroke-linecap="butt" d="m19.811481 27.348507c2.507 -1.1819763 6.1749783 -2.2817135 7.459318 0.73490906c1.2843399 3.0166225 2.7537174 16.18285 0.24671936 17.36483c-2.507 1.1819763 -14.004375 -7.256344 -15.288714 -10.272968c-1.2843399 -3.0166206 5.075679 -6.6447926 7.582677 -7.826771z" fill-rule="evenodd"/><path fill="#000000" fill-opacity="0.0" d="m14.553805 17.989502l4.614173 -9.228343l12.094488 0l4.614174 9.228343l-4.614174 9.228342l-12.094488 0z" fill-rule="evenodd"/><path stroke="#999999" stroke-width="4.0" stroke-linejoin="round" stroke-linecap="butt" d="m14.553805 17.989502l4.614173 -9.228343l12.094488 0l4.614174 9.228343l-4.614174 9.228342l-12.094488 0z" fill-rule="evenodd"/><path fill="#000000" fill-opacity="0.0" d="m81.8787 5.108762c-2.3048172 0.7779703 -4.0222473 15.786145 -2.060913 18.009811c1.9613342 2.2236652 13.485428 -1.6661873 13.828918 -4.667822c0.34348297 -3.0016346 -9.463188 -14.119959 -11.768005 -13.341989z" fill-rule="evenodd"/><path stroke="#cc0000" stroke-width="1.0" stroke-linejoin="round" stroke-linecap="butt" d="m81.8787 5.108762c-2.3048172 0.7779703 -4.0222473 15.786145 -2.060913 18.009811c1.9613342 2.2236652 13.485428 -1.6661873 13.828918 -4.667822c0.34348297 -3.0016346 -9.463188 -14.119959 -11.768005 -13.341989z" fill-rule="evenodd"/><path fill="#000000" fill-opacity="0.0" d="m82.149994 5.128551c1.0796661 -0.32465124 -0.6787491 -2.2803612 1.6891556 -0.71606207c2.3679123 1.5642986 13.504723 7.6249437 12.518311 10.101855c-0.9864197 2.4769106 -15.27076 6.1186037 -18.436813 4.759612c-3.1660461 -1.3589916 -1.2643814 -10.555993 -0.559494 -12.913561c0.704895 -2.3575678 3.709175 -0.90719366 4.7888412 -1.2318449z" fill-rule="evenodd"/><path stroke="#cc0000" stroke-width="1.0" stroke-linejoin="round" stroke-linecap="butt" d="m82.149994 5.128551c1.0796661 -0.32465124 -0.6787491 -2.2803612 1.6891556 -0.71606207c2.3679123 1.5642986 13.504723 7.6249437 12.518311 10.101855c-0.9864197 2.4769106 -15.27076 6.1186037 -18.436813 4.759612c-3.1660461 -1.3589916 -1.2643814 -10.555993 -0.559494 -12.913561c0.704895 -2.3575678 3.709175 -0.90719366 4.7888412 -1.2318449z" fill-rule="evenodd"/><path fill="#000000" fill-opacity="0.0" d="m82.393265 4.756978c1.8468704 -2.0667284 4.7947464 -4.510869 7.154625 -2.234742c2.3598862 2.276127 8.851517 13.824776 7.004654 15.891504c-1.8468704 2.0667286 -15.725983 -1.2150078 -18.085861 -3.4911346c-2.3598785 -2.2761269 2.079712 -8.0989 3.9265823 -10.1656275z" fill-rule="evenodd"/><path stroke="#cc0000" stroke-width="1.0" stroke-linejoin="round" stroke-linecap="butt" d="m82.393265 4.756978c1.8468704 -2.0667284 4.7947464 -4.510869 7.154625 -2.234742c2.3598862 2.276127 8.851517 13.824776 7.004654 15.891504c-1.8468704 2.0667286 -15.725983 -1.2150078 -18.085861 -3.4911346c-2.3598785 -2.2761269 2.079712 -8.0989 3.9265823 -10.1656275z" fill-rule="evenodd"/><path fill="#000000" fill-opacity="0.0" d="m58.396862 16.210117l8.605282 -5.6754l10.47448 6.0594673l-0.62306976 10.293098l-8.605278 5.6754l-10.474476 -6.059469z" fill-rule="evenodd"/><path stroke="#999999" stroke-width="4.0" stroke-linejoin="round" stroke-linecap="butt" d="m58.396862 16.210117l8.605282 -5.6754l10.47448 6.0594673l-0.62306976 10.293098l-8.605278 5.6754l-10.474476 -6.059469z" fill-rule="evenodd"/><path fill="#000000" fill-opacity="0.0" d="m57.561115 74.7938c-2.304821 0.77796936 -4.0222473 15.786148 -2.060913 18.009811c1.9613342 2.2236633 13.485432 -1.6661835 13.828915 -4.667824c0.3434906 -3.0016327 -9.463184 -14.119957 -11.768002 -13.341988z" fill-rule="evenodd"/><path stroke="#cc0000" stroke-width="1.0" stroke-linejoin="round" stroke-linecap="butt" d="m57.561115 74.7938c-2.304821 0.77796936 -4.0222473 15.786148 -2.060913 18.009811c1.9613342 2.2236633 13.485432 -1.6661835 13.828915 -4.667824c0.3434906 -3.0016327 -9.463184 -14.119957 -11.768002 -13.341988z" fill-rule="evenodd"/><path fill="#000000" fill-opacity="0.0" d="m57.83241 74.81359c1.0796661 -0.32465363 -0.6787529 -2.280365 1.6891594 -0.71606445c2.3679085 1.5643005 13.504723 7.6249466 12.518303 10.10186c-0.9864197 2.4769058 -15.27076 6.118599 -18.43681 4.7596054c-3.16605 -1.3589859 -1.2643852 -10.555992 -0.559494 -12.913559c0.7048912 -2.3575668 3.709175 -0.9071884 4.7888412 -1.231842z" fill-rule="evenodd"/><path stroke="#cc0000" stroke-width="1.0" stroke-linejoin="round" stroke-linecap="butt" d="m57.83241 74.81359c1.0796661 -0.32465363 -0.6787529 -2.280365 1.6891594 -0.71606445c2.3679085 1.5643005 13.504723 7.6249466 12.518303 10.10186c-0.9864197 2.4769058 -15.27076 6.118599 -18.43681 4.7596054c-3.16605 -1.3589859 -1.2643852 -10.555992 -0.559494 -12.913559c0.7048912 -2.3575668 3.709175 -0.9071884 4.7888412 -1.231842z" fill-rule="evenodd"/><path fill="#000000" fill-opacity="0.0" d="m58.07568 74.44202c1.8468666 -2.0667267 4.79475 -4.5108643 7.1546288 -2.2347412c2.3598785 2.2761307 8.851517 13.824776 7.0046463 15.891502c-1.8468704 2.0667267 -15.725979 -1.215004 -18.085857 -3.4911346c-2.3598785 -2.276123 2.079712 -8.0989 3.9265823 -10.165627z" fill-rule="evenodd"/><path stroke="#cc0000" stroke-width="1.0" stroke-linejoin="round" stroke-linecap="butt" d="m58.07568 74.44202c1.8468666 -2.0667267 4.79475 -4.5108643 7.1546288 -2.2347412c2.3598785 2.2761307 8.851517 13.824776 7.0046463 15.891502c-1.8468704 2.0667267 -15.725979 -1.215004 -18.085857 -3.4911346c-2.3598785 -2.276123 2.079712 -8.0989 3.9265823 -10.165627z" fill-rule="evenodd"/><path fill="#000000" fill-opacity="0.0" d="m3.9758117 55.77543c-2.3048193 0.77796936 -4.022246 15.786148 -2.0609117 18.009811c1.9613341 2.2236633 13.485432 -1.6661911 13.828917 -4.667824c0.34348488 -3.0016327 -9.463185 -14.119957 -11.768004 -13.341988z" fill-rule="evenodd"/><path stroke="#cc0000" stroke-width="1.0" stroke-linejoin="round" stroke-linecap="butt" d="m3.9758117 55.77543c-2.3048193 0.77796936 -4.022246 15.786148 -2.0609117 18.009811c1.9613341 2.2236633 13.485432 -1.6661911 13.828917 -4.667824c0.34348488 -3.0016327 -9.463185 -14.119957 -11.768004 -13.341988z" fill-rule="evenodd"/><path fill="#000000" fill-opacity="0.0" d="m4.247107 55.79522c1.0796666 -0.32465363 -0.67875195 -2.2803612 1.6891584 -0.71606445c2.36791 1.5643005 13.504721 7.624943 12.518303 10.101852c-0.9864178 2.4769135 -15.270758 6.1186066 -18.436808 4.759613c-3.1660502 -1.3589859 -1.2643847 -10.555992 -0.5594937 -12.913559c0.7048911 -2.3575668 3.7091737 -0.90719223 4.7888403 -1.231842z" fill-rule="evenodd"/><path stroke="#cc0000" stroke-width="1.0" stroke-linejoin="round" stroke-linecap="butt" d="m4.247107 55.79522c1.0796666 -0.32465363 -0.67875195 -2.2803612 1.6891584 -0.71606445c2.36791 1.5643005 13.504721 7.624943 12.518303 10.101852c-0.9864178 2.4769135 -15.270758 6.1186066 -18.436808 4.759613c-3.1660502 -1.3589859 -1.2643847 -10.555992 -0.5594937 -12.913559c0.7048911 -2.3575668 3.7091737 -0.90719223 4.7888403 -1.231842z" fill-rule="evenodd"/><path fill="#000000" fill-opacity="0.0" d="m4.490378 55.423645c1.846868 -2.0667305 4.794749 -4.510868 7.1546283 -2.2347412c2.3598795 2.2761269 8.851515 13.824776 7.0046463 15.891502c-1.8468685 2.0667267 -15.725977 -1.215004 -18.085857 -3.4911346c-2.3598793 -2.2761269 2.0797136 -8.0989 3.926582 -10.165627z" fill-rule="evenodd"/><path stroke="#cc0000" stroke-width="1.0" stroke-linejoin="round" stroke-linecap="butt" d="m4.490378 55.423645c1.846868 -2.0667305 4.794749 -4.510868 7.1546283 -2.2347412c2.3598795 2.2761269 8.851515 13.824776 7.0046463 15.891502c-1.8468685 2.0667267 -15.725977 -1.215004 -18.085857 -3.4911346c-2.3598793 -2.2761269 2.0797136 -8.0989 3.926582 -10.165627z" fill-rule="evenodd"/><path fill="#000000" fill-opacity="0.0" d="m18.970064 69.1656l-1.0293732 -10.256481l10.216232 -6.4476585l8.82889 5.3340645l1.0293732 10.256481l-10.216232 6.4476547z" fill-rule="evenodd"/><path stroke="#999999" stroke-width="4.0" stroke-linejoin="round" stroke-linecap="butt" d="m18.970064 69.1656l-1.0293732 -10.256481l10.216232 -6.4476585l8.82889 5.3340645l1.0293732 10.256481l-10.216232 6.4476547z" fill-rule="evenodd"/><path fill="#000000" fill-opacity="0.0" d="m59.182674 64.26076l3.456791 -9.707848l12.015549 -1.4661827l5.693016 8.591354l-3.4567947 9.707851l-12.015549 1.4661789z" fill-rule="evenodd"/><path stroke="#999999" stroke-width="4.0" stroke-linejoin="round" stroke-linecap="butt" d="m59.182674 64.26076l3.456791 -9.707848l12.015549 -1.4661827l5.693016 8.591354l-3.4567947 9.707851l-12.015549 1.4661789z" fill-rule="evenodd"/><path fill="#000000" fill-opacity="0.0" d="m77.04526 28.248632c-1.1819763 0.5096245 -1.3241425 6.4216976 -2.3228302 9.173227c-0.99868774 2.7515335 -4.7900314 5.073494 -3.6692963 7.3359604c1.1207352 2.2624664 7.764656 6.7484665 10.393707 6.238846c2.6290436 -0.5096245 5.3193283 -6.524498 5.380577 -9.296589c0.06124115 -2.772091 -3.3827667 -5.0940514 -5.01313 -7.3359566c-1.6303558 -2.241909 -3.5870514 -6.6251106 -4.7690277 -6.115488z" fill-rule="evenodd"/><path stroke="#6fa8dc" stroke-width="1.0" stroke-linejoin="round" stroke-linecap="butt" d="m77.04526 28.248632c-1.1819763 0.5096245 -1.3241425 6.4216976 -2.3228302 9.173227c-0.99868774 2.7515335 -4.7900314 5.073494 -3.6692963 7.3359604c1.1207352 2.2624664 7.764656 6.7484665 10.393707 6.238846c2.6290436 -0.5096245 5.3193283 -6.524498 5.380577 -9.296589c0.06124115 -2.772091 -3.3827667 -5.0940514 -5.01313 -7.3359566c-1.6303558 -2.241909 -3.5870514 -6.6251106 -4.7690277 -6.115488z" fill-rule="evenodd"/></g></svg>