<svg version="1.1" viewBox="0.0 0.0 96.0 96.0" fill="none" stroke="none" stroke-linecap="square" stroke-miterlimit="10" xmlns:xlink="http://www.w3.org/1999/xlink" xmlns="http://www.w3.org/2000/svg"><clipPath id="p.0"><path d="m0 0l96.0 0l0 96.0l-96.0 0l0 -96.0z" clip-rule="nonzero"/></clipPath><g clip-path="url(#p.0)"><path fill="#000000" fill-opacity="0.0" d="m0 0l96.0 0l0 96.0l-96.0 0z" fill-rule="evenodd"/><path fill="#f1c232" d="m0 48.0l0 0c0 -26.509668 21.490332 -48.0 48.0 -48.0l0 0c12.730392 0 24.939377 5.0571284 33.941124 14.058874c9.001747 9.001747 14.058876 21.210733 14.058876 33.941124l0 0c0 26.509666 -21.490334 48.0 -48.0 48.0l0 0c-26.509668 0 -48.0 -21.490334 -48.0 -48.0zm8.83008 0l0 0c0 21.63295 17.53697 39.16992 39.16992 39.16992c21.63295 0 39.16992 -17.536972 39.16992 -39.16992l0 0c0 -21.63295 -17.536972 -39.16992 -39.16992 -39.16992l0 0c-21.63295 0 -39.16992 17.53697 -39.16992 39.16992z" fill-rule="evenodd"/><path fill="#f1c232" d="m8.204724 48.00525l0 0c0 -21.917442 17.816952 -39.68504 39.795277 -39.68504l0 0c10.554363 0 20.676445 4.1810904 28.139511 11.62348c7.4630585 7.4423885 11.655762 17.536432 11.655762 28.06156l0 0c0 21.917442 -17.816948 39.685043 -39.795273 39.685043l0 0c-21.978323 0 -39.795277 -17.767601 -39.795277 -39.685043z" fill-rule="evenodd"/><path stroke="#bf9000" stroke-width="1.0" stroke-linejoin="round" stroke-linecap="butt" d="m8.204724 48.00525l0 0c0 -21.917442 17.816952 -39.68504 39.795277 -39.68504l0 0c10.554363 0 20.676445 4.1810904 28.139511 11.62348c7.4630585 7.4423885 11.655762 17.536432 11.655762 28.06156l0 0c0 21.917442 -17.816948 39.685043 -39.795273 39.685043l0 0c-21.978323 0 -39.795277 -17.767601 -39.795277 -39.685043z" fill-rule="evenodd"/><path fill="#000000" fill-opacity="0.0" d="m54.54331 48.85827l6.9763756 -31.370079l6.9763794 0l-13.952755 62.740158z" fill-rule="evenodd"/><path stroke="#bf9000" stroke-width="1.0" stroke-linejoin="round" stroke-linecap="butt" d="m54.54331 48.85827l6.9763756 -31.370079l6.9763794 0l-13.952755 62.740158z" fill-rule="evenodd"/><path fill="#000000" fill-opacity="0.0" d="m22.380577 61.572178l0 0c0 -5.435871 4.4066467 -9.842518 9.842522 -9.842518l0 0c2.6103973 0 5.11388 1.0369759 6.959709 2.8828049c1.8458328 1.8458328 2.8828087 4.3493156 2.8828087 6.959713l0 0c0 5.435871 -4.4066467 9.842518 -9.842518 9.842518l0 0c-5.435875 0 -9.842522 -4.4066467 -9.842522 -9.842518z" fill-rule="evenodd"/><path stroke="#bf9000" stroke-width="1.0" stroke-linejoin="round" stroke-linecap="butt" d="m22.380577 61.572178l0 0c0 -5.435871 4.4066467 -9.842518 9.842522 -9.842518l0 0c2.6103973 0 5.11388 1.0369759 6.959709 2.8828049c1.8458328 1.8458328 2.8828087 4.3493156 2.8828087 6.959713l0 0c0 5.435871 -4.4066467 9.842518 -9.842518 9.842518l0 0c-5.435875 0 -9.842522 -4.4066467 -9.842522 -9.842518z" fill-rule="evenodd"/><path fill="#000000" fill-opacity="0.0" d="m32.632545 27.766405l0 0c0 -3.8529472 3.1234322 -6.9763794 6.9763794 -6.9763794l0 0c1.8502502 0 3.6247177 0.73501015 4.9330444 2.043335c1.3083229 1.3083248 2.0433311 3.0827923 2.0433311 4.9330444l0 0c0 3.8529453 -3.1234283 6.9763775 -6.9763756 6.9763775l0 0c-3.8529472 0 -6.9763794 -3.1234322 -6.9763794 -6.9763775z" fill-rule="evenodd"/><path stroke="#bf9000" stroke-width="1.0" stroke-linejoin="round" stroke-linecap="butt" d="m32.632545 27.766405l0 0c0 -3.8529472 3.1234322 -6.9763794 6.9763794 -6.9763794l0 0c1.8502502 0 3.6247177 0.73501015 4.9330444 2.043335c1.3083229 1.3083248 2.0433311 3.0827923 2.0433311 4.9330444l0 0c0 3.8529453 -3.1234283 6.9763775 -6.9763756 6.9763775l0 0c-3.8529472 0 -6.9763794 -3.1234322 -6.9763794 -6.9763775z" fill-rule="evenodd"/><path fill="#000000" fill-opacity="0.0" d="m-0.61154854 96.48819l96.47244 -97.22835" fill-rule="evenodd"/><path stroke="#999999" stroke-width="4.0" stroke-linejoin="round" stroke-linecap="butt" d="m-0.61154854 96.48819l96.47244 -97.22835" fill-rule="evenodd"/><path fill="#cccccc" d="m2.2257218E-4 72.91299l11.244095 -11.244095l23.086617 23.086617l-11.244097 11.244095z" fill-rule="evenodd"/><path fill="#cccccc" d="m61.669514 11.243696l11.244091 -11.244095l23.086617 23.086615l-11.244095 11.244095z" fill-rule="evenodd"/><path fill="#cccccc" d="m30.834867 42.078342l11.244097 -11.244095l23.086609 23.086613l-11.244091 11.244095z" fill-rule="evenodd"/><path fill="#cccccc" d="m53.46479 84.12559l11.244095 -11.244095l23.086617 23.086609l-11.244095 11.244095z" fill-rule="evenodd"/><path fill="#cccccc" d="m72.6444 65.06826l11.244095 -11.244091l23.086617 23.086613l-11.244095 11.244095z" fill-rule="evenodd"/><path fill="#000000" fill-opacity="0.0" d="m33.244095 129.97638l96.47244 -97.22835" fill-rule="evenodd"/><path stroke="#999999" stroke-width="4.0" stroke-linejoin="round" stroke-linecap="butt" d="m33.244095 129.97638l96.47244 -97.22835" fill-rule="evenodd"/><path fill="#000000" fill-opacity="0.0" d="m64.81628 25.1916l40.220467 40.251972" fill-rule="evenodd"/><path stroke="#d9d9d9" stroke-width="8.0" stroke-linejoin="round" stroke-linecap="butt" d="m64.81628 25.1916l40.220467 40.251972" fill-rule="evenodd"/><path fill="#000000" fill-opacity="0.0" d="m25.060944 64.9471l40.220474 40.25197" fill-rule="evenodd"/><path stroke="#d9d9d9" stroke-width="8.0" stroke-linejoin="round" stroke-linecap="butt" d="m25.060944 64.9471l40.220474 40.25197" fill-rule="evenodd"/><path fill="#000000" fill-opacity="0.0" d="m64.93627 25.5599c0.30577087 1.7935257 32.307083 36.340767 38.401573 41.456696c6.09449 5.115921 4.565613 -3.8517075 -1.8346481 -10.761154c-6.400261 -6.9094505 -36.872704 -32.489067 -36.566925 -30.69554z" fill-rule="evenodd"/><path stroke="#ff9900" stroke-width="1.0" stroke-linejoin="round" stroke-linecap="butt" d="m64.93627 25.5599c0.30577087 1.7935257 32.307083 36.340767 38.401573 41.456696c6.09449 5.115921 4.565613 -3.8517075 -1.8346481 -10.761154c-6.400261 -6.9094505 -36.872704 -32.489067 -36.566925 -30.69554z" fill-rule="evenodd"/><path fill="#000000" fill-opacity="0.0" d="m26.170135 64.69193c-1.9566936 -0.18373108 22.297462 30.083115 29.104988 36.320206c6.807522 6.2370987 16.590988 7.155731 11.740158 1.1023636c-4.850834 -6.0533676 -38.88845 -37.238846 -40.845146 -37.42257z" fill-rule="evenodd"/><path stroke="#ff9900" stroke-width="1.0" stroke-linejoin="round" stroke-linecap="butt" d="m26.170135 64.69193c-1.9566936 -0.18373108 22.297462 30.083115 29.104988 36.320206c6.807522 6.2370987 16.590988 7.155731 11.740158 1.1023636c-4.850834 -6.0533676 -38.88845 -37.238846 -40.845146 -37.42257z" fill-rule="evenodd"/></g></svg>