<svg version="1.1" viewBox="0.0 0.0 96.0 96.0" fill="none" stroke="none" stroke-linecap="square" stroke-miterlimit="10" xmlns:xlink="http://www.w3.org/1999/xlink" xmlns="http://www.w3.org/2000/svg"><clipPath id="p.0"><path d="m0 0l96.0 0l0 96.0l-96.0 0l0 -96.0z" clip-rule="nonzero"/></clipPath><g clip-path="url(#p.0)"><path fill="#000000" fill-opacity="0.0" d="m0 0l96.0 0l0 96.0l-96.0 0z" fill-rule="evenodd"/><path fill="#000000" fill-opacity="0.0" d="m69.70634 1.5900263c-0.26447296 6.7131467 1.4440002 29.293642 -1.5868454 40.27888c-3.0308456 10.985241 -13.83186 21.360466 -16.598232 25.632557" fill-rule="evenodd"/><path stroke="#999999" stroke-width="2.0" stroke-linejoin="round" stroke-linecap="butt" d="m69.70634 1.5900263c-0.26447296 6.7131467 1.4440002 29.293642 -1.5868454 40.27888c-3.0308456 10.985241 -13.83186 21.360466 -16.598232 25.632557" fill-rule="evenodd"/><defs><linearGradient id="p.1" gradientUnits="userSpaceOnUse" gradientTransform="matrix(2.638388009666475 0.0 0.0 2.638388009666475 0.0 0.0)" spreadMethod="pad" x1="19.525340808507952" y1="0.6494062997765043" x2="16.88695279891036" y2="0.6493872343700469"><stop offset="0.0" stop-color="#8c8c8c"/><stop offset="1.0" stop-color="#404040"/></linearGradient></defs><path fill="url(#p.1)" d="m44.55433 1.7133858l6.9606323 0l0 63.590553l-6.9606323 0z" fill-rule="evenodd"/><defs><linearGradient id="p.2" gradientUnits="userSpaceOnUse" gradientTransform="matrix(5.823948545806927 -3.3615343041520918 3.3615343041520918 5.823948545806927 0.0 0.0)" spreadMethod="pad" x1="1.2825441404925166" y1="0.33194385351171746" x2="-2.835632013310151" y2="4.450074719627763"><stop offset="0.0" stop-color="#ffc002"/><stop offset="1.0" stop-color="#a27900"/></linearGradient></defs><path fill="url(#p.2)" d="m2.1291385 33.322395l0 0c-1.1741486 -2.0351906 -0.47632766 -4.637207 1.5586269 -5.8117657l33.229202 -19.179619c0.9772186 -0.56404305 2.138401 -0.71674013 3.2280998 -0.4245c1.0896988 0.29224062 2.01865 1.0054793 2.5824928 1.9828124l0 0l0 0c1.1741524 2.0351915 0.4763298 4.637208 -1.5586243 5.8117666l-33.229202 19.179615c-2.0349545 1.1745605 -4.636447 0.47687912 -5.8105955 -1.5583115z" fill-rule="evenodd"/><defs><linearGradient id="p.3" gradientUnits="userSpaceOnUse" gradientTransform="matrix(5.823948453155328 3.361534250682108 -3.361534250682108 5.823948453155328 0.0 0.0)" spreadMethod="pad" x1="11.292851952643044" y1="-3.018525323625611" x2="7.174675828620157" y2="1.0996054412406735"><stop offset="0.0" stop-color="#ffc002"/><stop offset="1.0" stop-color="#a27900"/></linearGradient></defs><path fill="url(#p.3)" d="m41.77317 32.64873l0 0c1.1741486 -2.0351906 3.7756386 -2.73287 5.8105927 -1.5583115l33.229202 19.179619c0.9772186 0.56404114 1.6904297 1.4932289 1.982727 2.5831451c0.292305 1.0899162 0.13974762 2.2512856 -0.42409515 3.2286186l0 0l0 0c-1.1741486 2.0351906 -3.7756424 2.732872 -5.8106003 1.5583153l-33.229202 -19.179619c-2.034954 -1.1745605 -2.7327728 -3.776577 -1.5586243 -5.8117676z" fill-rule="evenodd"/><defs><linearGradient id="p.4" gradientUnits="userSpaceOnUse" gradientTransform="matrix(5.98630601492092 2.6371392136807175 -2.6371392136807175 5.98630601492092 0.0 0.0)" spreadMethod="pad" x1="9.11025026294835" y1="2.7238747781226023" x2="4.877269469440986" y2="6.956809139304708"><stop offset="0.0" stop-color="#ffc002"/><stop offset="1.0" stop-color="#a27900"/></linearGradient></defs><path fill="url(#p.4)" d="m14.741599 56.221706l0 0c0.94801617 -2.1482544 3.4585352 -3.1223602 5.6074 -2.175724l35.11591 15.469559c1.0319214 0.45459747 1.8407288 1.3003769 2.2484932 2.3512955c0.40776825 1.0509186 0.38108826 2.2208786 -0.074165344 3.25251l0 0l0 0c-0.9480171 2.1482544 -3.4585342 3.1223602 -5.607399 2.1757278l-35.115906 -15.469566c-2.1488667 -0.9466362 -3.1223469 -3.4555435 -2.1743307 -5.6038017z" fill-rule="evenodd"/><path fill="#000000" fill-opacity="0.0" d="m77.55358 0.54986876c-0.26447296 6.713147 1.4440002 29.293642 -1.5868454 40.27888c-3.0308456 10.985241 -13.83186 21.360466 -16.598232 25.63256" fill-rule="evenodd"/><path stroke="#999999" stroke-width="2.0" stroke-linejoin="round" stroke-linecap="butt" d="m77.55358 0.54986876c-0.26447296 6.713147 1.4440002 29.293642 -1.5868454 40.27888c-3.0308456 10.985241 -13.83186 21.360466 -16.598232 25.63256" fill-rule="evenodd"/><path fill="#000000" fill-opacity="0.0" d="m25.926285 1.0698162c0.26447487 6.713147 -1.4440002 29.293642 1.5868454 40.27888c3.0308475 10.985241 13.831863 21.360466 16.598232 25.632557" fill-rule="evenodd"/><path stroke="#999999" stroke-width="2.0" stroke-linejoin="round" stroke-linecap="butt" d="m25.926285 1.0698162c0.26447487 6.713147 -1.4440002 29.293642 1.5868454 40.27888c3.0308475 10.985241 13.831863 21.360466 16.598232 25.632557" fill-rule="evenodd"/><path fill="#000000" fill-opacity="0.0" d="m18.07904 0.029658793c0.26447487 6.713147 -1.4440002 29.293642 1.5868454 40.27888c3.0308475 10.985241 13.831863 21.360466 16.598232 25.63256" fill-rule="evenodd"/><path stroke="#999999" stroke-width="2.0" stroke-linejoin="round" stroke-linecap="butt" d="m18.07904 0.029658793c0.26447487 6.713147 -1.4440002 29.293642 1.5868454 40.27888c3.0308475 10.985241 13.831863 21.360466 16.598232 25.63256" fill-rule="evenodd"/><defs><linearGradient id="p.5" gradientUnits="userSpaceOnUse" gradientTransform="matrix(-9.801173206677067 0.0 0.0 -9.801173206677067 0.0 0.0)" spreadMethod="pad" x1="-9.802137256433978" y1="-6.661580335506263" x2="-9.640497569099739E-4" y2="-6.661580335506263"><stop offset="0.0" stop-color="#ff0000"/><stop offset="1.0" stop-color="#cc0000"/></linearGradient></defs><path fill="url(#p.5)" d="m96.07244 65.291306l-7.018463 30.708664l-82.02606 0l-7.0184646 -30.708664z" fill-rule="evenodd"/><defs><linearGradient id="p.6" gradientUnits="userSpaceOnUse" gradientTransform="matrix(9.139341842273543 0.0 0.0 9.139341842273543 0.0 0.0)" spreadMethod="pad" x1="9.821690809833381" y1="8.320500323531118E-12" x2="0.68234896779937" y2="-6.616864360304859E-5"><stop offset="0.0" stop-color="#ff0000"/><stop offset="1.0" stop-color="#cc0000"/></linearGradient></defs><path fill="url(#p.6)" d="m6.2362204 0l83.52756 0l0 1.7007874l-83.52756 0z" fill-rule="evenodd"/><defs><linearGradient id="p.7" gradientUnits="userSpaceOnUse" gradientTransform="matrix(5.054887607048447 -2.756007628213664 2.756007628213664 5.054887607048447 0.0 0.0)" spreadMethod="pad" x1="1.9319077553710242" y1="7.2181062377745775" x2="-3.1229798515456" y2="7.218069731816718"><stop offset="0.0" stop-color="#dddddd"/><stop offset="1.0" stop-color="#919191"/></linearGradient></defs><path fill="url(#p.7)" d="m4.106845 45.093674l25.551872 -13.931303l1.0554028 1.9357471l-25.551874 13.931301z" fill-rule="evenodd"/><defs><linearGradient id="p.8" gradientUnits="userSpaceOnUse" gradientTransform="matrix(3.54326334318878 -1.9318452873963243 1.9318452873963243 3.54326334318878 0.0 0.0)" spreadMethod="pad" x1="6.299339130123989" y1="10.44577578830633" x2="2.756075787030895" y2="10.445749748255661"><stop offset="0.0" stop-color="#dddddd"/><stop offset="1.0" stop-color="#919191"/></linearGradient></defs><path fill="url(#p.8)" d="m29.945126 31.687822l12.554707 -6.8450336l0.48247147 0.8849125l-12.5547085 6.8450336z" fill-rule="evenodd"/><defs><linearGradient id="p.9" gradientUnits="userSpaceOnUse" gradientTransform="matrix(2.0070253574705657 -1.0942631420693436 1.0942631420693436 2.0070253574705657 0.0 0.0)" spreadMethod="pad" x1="-5.256849637352042" y1="15.927878749133123" x2="-6.676038446156175" y2="17.347052420850208"><stop offset="0.0" stop-color="#ffc002"/><stop offset="1.0" stop-color="#a27900"/></linearGradient></defs><path fill="url(#p.9)" d="m6.7342534 39.341354l1.5854535 -0.8644142l0 0c0.10512543 -0.057315826 0.22871399 -0.07052231 0.34357738 -0.03671646c0.114863396 0.033805847 0.21159267 0.11185455 0.2689085 0.21697998l1.5931501 2.9220505c5.722046E-6 1.1444092E-5 1.9073486E-6 2.670288E-5 -9.536743E-6 3.0517578E-5l-2.3781958 1.296608l0 0c-1.04904175E-5 3.8146973E-6 -2.4795532E-5 0 -3.0517578E-5 -1.1444092E-5l-1.5931187 -2.922039l0 0c-0.119354725 -0.21891403 -0.038647175 -0.49313354 0.18026495 -0.6124878z" fill-rule="evenodd"/><path fill="#000000" fill-opacity="0.0" d="m44.5068 22.651413l-2.4680786 1.3456383l1.4046898 2.5763874l2.4680786 -1.3456364" fill-rule="evenodd"/><path stroke="#999999" stroke-width="1.0" stroke-linejoin="round" stroke-linecap="butt" d="m44.5068 22.651413l-2.4680786 1.3456383l1.4046898 2.5763874l2.4680786 -1.3456364" fill-rule="evenodd"/><defs><linearGradient id="p.10" gradientUnits="userSpaceOnUse" gradientTransform="matrix(5.073850852913748 2.674583600187491 -2.674583600187491 5.073850852913748 0.0 0.0)" spreadMethod="pad" x1="14.80193856607999" y1="-1.8204434432303775" x2="9.728087713299375" y2="-1.8204801994172781"><stop offset="0.0" stop-color="#dddddd"/><stop offset="1.0" stop-color="#919191"/></linearGradient></defs><path fill="url(#p.10)" d="m54.227795 16.781925l25.743946 13.570431l-1.0280609 1.9502983l-25.74395 -13.570431z" fill-rule="evenodd"/><defs><linearGradient id="p.11" gradientUnits="userSpaceOnUse" gradientTransform="matrix(3.556556121812338 1.87477065298468 -1.87477065298468 3.556556121812338 0.0 0.0)" spreadMethod="pad" x1="24.673263826677687" y1="-2.448236799950416" x2="21.116707704959076" y2="-2.448262620031305"><stop offset="0.0" stop-color="#dddddd"/><stop offset="1.0" stop-color="#919191"/></linearGradient></defs><path fill="url(#p.11)" d="m79.692635 30.881691l12.649086 6.6677246l-0.4699707 0.8915634l-12.649086 -6.6677227z" fill-rule="evenodd"/><defs><linearGradient id="p.12" gradientUnits="userSpaceOnUse" gradientTransform="matrix(2.014554277963509 1.0619338227462516 -1.0619338227462516 2.014554277963509 0.0 0.0)" spreadMethod="pad" x1="27.11959897327573" y1="-6.845032467968084" x2="25.695086666397277" y2="-5.4205347928513765"><stop offset="0.0" stop-color="#ffc002"/><stop offset="1.0" stop-color="#a27900"/></linearGradient></defs><path fill="url(#p.12)" d="m60.472656 15.786568l1.5973701 0.84202385l0 0c0.10591507 0.05583191 0.18531418 0.15145111 0.22072983 0.26582336c0.03541565 0.11437225 0.023944855 0.23812866 -0.031887054 0.34404373l-1.5518799 2.9440155c-7.6293945E-6 1.1444092E-5 -1.9073486E-5 1.5258789E-5 -3.0517578E-5 9.536743E-6l-2.3960533 -1.2630577l0 0c-1.1444092E-5 -5.722046E-6 -1.5258789E-5 -2.0980835E-5 -7.6293945E-6 -3.0517578E-5l1.5518913 -2.943985l0 0c0.11626053 -0.22055817 0.38930893 -0.30510616 0.6098671 -0.18884277z" fill-rule="evenodd"/><path fill="#000000" fill-opacity="0.0" d="m95.27752 38.0081l-2.4866333 -1.3107796l-1.3683014 2.5957565l2.4866333 1.3107796" fill-rule="evenodd"/><path stroke="#999999" stroke-width="1.0" stroke-linejoin="round" stroke-linecap="butt" d="m95.27752 38.0081l-2.4866333 -1.3107796l-1.3683014 2.5957565l2.4866333 1.3107796" fill-rule="evenodd"/></g></svg>