<svg version="1.1" viewBox="0.0 0.0 96.0 96.0" fill="none" stroke="none" stroke-linecap="square" stroke-miterlimit="10" xmlns:xlink="http://www.w3.org/1999/xlink" xmlns="http://www.w3.org/2000/svg"><clipPath id="p.0"><path d="m0 0l96.0 0l0 96.0l-96.0 0l0 -96.0z" clip-rule="nonzero"/></clipPath><g clip-path="url(#p.0)"><path fill="#000000" fill-opacity="0.0" d="m0 0l96.0 0l0 96.0l-96.0 0z" fill-rule="evenodd"/><path fill="#999999" d="m37.62992 55.181343l59.11811 -9.700787l0.62992096 3.90551l-59.11811 9.70079z" fill-rule="evenodd"/><path fill="#000000" d="m35.186974 40.626488l18.456696 -3.0236206l5.7007866 34.866142l-18.456692 3.0236206z" fill-rule="evenodd"/><path fill="#4a86e8" d="m13.398174 38.415306l49.228348 -28.40945l4.2834663 7.433072l-49.228348 28.409449z" fill-rule="evenodd"/><path fill="#cc0000" d="m17.681639 45.834484l49.228348 -28.409449l4.2834625 7.433071l-49.228348 28.409449z" fill-rule="evenodd"/><path fill="#000000" d="m0.61841255 42.9174l0 0c-0.6118961 -1.0610046 -0.24774137 -2.4170265 0.8133623 -3.0287552l7.6849623 -4.4304047l0 0c0.50955963 -0.2937622 1.1149788 -0.37308884 1.6830702 -0.22052765c0.5680914 0.15255737 1.0523214 0.5245056 1.3461637 1.0340195l11.04397 19.14988c0.6118965 1.0610046 0.2477417 2.4170265 -0.8133621 3.0287552l-7.6849623 4.4304047c-1.0611029 0.61172867 -2.4173374 0.24751663 -3.029234 -0.8134918z" fill-rule="evenodd"/><path fill="#000000" d="m61.385666 7.8334126l0 0c-0.6118965 -1.0610075 -0.2477417 -2.417029 0.8133621 -3.028758l7.6849594 -4.430402l0 0c0.50955963 -0.2937627 1.1149826 -0.37309012 1.683075 -0.2205311c0.56809235 0.15255904 1.0523224 0.52450764 1.3461609 1.0340214l11.043968 19.14988c0.6119003 1.0610065 0.2477417 2.4170284 -0.8133621 3.028757l-7.6849594 4.4304028c-1.0611038 0.61172867 -2.4173355 0.24751663 -3.0292358 -0.8134918z" fill-rule="evenodd"/><path fill="#b7b7b7" d="m58.42258 49.466236l38.61417 -6.3307076l8.566933 52.377953l-38.614174 6.3307037z" fill-rule="evenodd"/></g></svg>