<svg version="1.1" viewBox="0.0 0.0 480.0 480.0" fill="none" stroke="none" stroke-linecap="square" stroke-miterlimit="10" xmlns:xlink="http://www.w3.org/1999/xlink" xmlns="http://www.w3.org/2000/svg"><clipPath id="p.0"><path d="m0 0l480.0 0l0 480.0l-480.0 0l0 -480.0z" clip-rule="nonzero"/></clipPath><g clip-path="url(#p.0)"><path fill="#000000" fill-opacity="0.0" d="m0 0l480.0 0l0 480.0l-480.0 0z" fill-rule="evenodd"/><path fill="#b7b7b7" d="m48.10499 28.800526l384.0 0l0 14.398949l-384.0 0z" fill-rule="evenodd"/><path stroke="#000000" stroke-width="1.0" stroke-linejoin="round" stroke-linecap="butt" d="m48.10499 28.800526l384.0 0l0 14.398949l-384.0 0z" fill-rule="evenodd"/><path fill="#d9d9d9" d="m254.49869 0l-28.7874 0l0 72.0l28.7874 0z" fill-rule="evenodd"/><path stroke="#000000" stroke-width="1.0" stroke-linejoin="round" stroke-linecap="butt" d="m254.49869 0l-28.7874 0l0 72.0l28.7874 0z" fill-rule="evenodd"/><path fill="#d9d9d9" d="m194.01869 0l-28.7874 0l0 72.0l28.7874 0z" fill-rule="evenodd"/><path stroke="#000000" stroke-width="1.0" stroke-linejoin="round" stroke-linecap="butt" d="m194.01869 0l-28.7874 0l0 72.0l28.7874 0z" fill-rule="evenodd"/><path fill="#d9d9d9" d="m133.11911 0l-28.787407 0l0 72.0l28.787407 0z" fill-rule="evenodd"/><path stroke="#000000" stroke-width="1.0" stroke-linejoin="round" stroke-linecap="butt" d="m133.11911 0l-28.787407 0l0 72.0l28.787407 0z" fill-rule="evenodd"/><path fill="#d9d9d9" d="m314.9787 0l-28.787415 0l0 72.0l28.787415 0z" fill-rule="evenodd"/><path stroke="#000000" stroke-width="1.0" stroke-linejoin="round" stroke-linecap="butt" d="m314.9787 0l-28.787415 0l0 72.0l28.787415 0z" fill-rule="evenodd"/><path fill="#d9d9d9" d="m375.45868 0l-28.787384 0l0 72.0l28.787384 0z" fill-rule="evenodd"/><path stroke="#000000" stroke-width="1.0" stroke-linejoin="round" stroke-linecap="butt" d="m375.45868 0l-28.787384 0l0 72.0l28.787384 0z" fill-rule="evenodd"/><path fill="#666666" d="m-0.104986876 192.0l48.0 0l0 96.0l-48.0 0z" fill-rule="evenodd"/><path stroke="#000000" stroke-width="1.0" stroke-linejoin="round" stroke-linecap="butt" d="m-0.104986876 192.0l48.0 0l0 96.0l-48.0 0z" fill-rule="evenodd"/><path fill="#666666" d="m-0.104986876 24.0l48.0 0l0 96.0l-48.0 0z" fill-rule="evenodd"/><path stroke="#000000" stroke-width="1.0" stroke-linejoin="round" stroke-linecap="butt" d="m-0.104986876 24.0l48.0 0l0 96.0l-48.0 0z" fill-rule="evenodd"/><path fill="#666666" d="m-0.104986876 360.0l48.0 0l0 96.0l-48.0 0z" fill-rule="evenodd"/><path stroke="#000000" stroke-width="1.0" stroke-linejoin="round" stroke-linecap="butt" d="m-0.104986876 360.0l48.0 0l0 96.0l-48.0 0z" fill-rule="evenodd"/><path fill="#666666" d="m432.10498 192.0l48.0 0l0 96.0l-48.0 0z" fill-rule="evenodd"/><path stroke="#000000" stroke-width="1.0" stroke-linejoin="round" stroke-linecap="butt" d="m432.10498 192.0l48.0 0l0 96.0l-48.0 0z" fill-rule="evenodd"/><path fill="#666666" d="m431.89502 24.0l48.0 0l0 96.0l-48.0 0z" fill-rule="evenodd"/><path stroke="#000000" stroke-width="1.0" stroke-linejoin="round" stroke-linecap="butt" d="m431.89502 24.0l48.0 0l0 96.0l-48.0 0z" fill-rule="evenodd"/><path fill="#666666" d="m432.10498 360.0l48.0 0l0 96.0l-48.0 0z" fill-rule="evenodd"/><path stroke="#000000" stroke-width="1.0" stroke-linejoin="round" stroke-linecap="butt" d="m432.10498 360.0l48.0 0l0 96.0l-48.0 0z" fill-rule="evenodd"/><path fill="#999999" d="m48.10499 96.0l384.0 0l0 384.0l-384.0 0z" fill-rule="evenodd"/><path stroke="#000000" stroke-width="1.0" stroke-linejoin="round" stroke-linecap="butt" d="m48.10499 96.0l384.0 0l0 384.0l-384.0 0z" fill-rule="evenodd"/><path fill="#999999" d="m48.10499 0l19.2126 0l0 96.0l-19.2126 0z" fill-rule="evenodd"/><path stroke="#000000" stroke-width="1.0" stroke-linejoin="round" stroke-linecap="butt" d="m48.10499 0l19.2126 0l0 96.0l-19.2126 0z" fill-rule="evenodd"/><path fill="#999999" d="m67.31759 96.0l0 -96.0l28.7874 96.0z" fill-rule="evenodd"/><path stroke="#000000" stroke-width="1.0" stroke-linejoin="round" stroke-linecap="butt" d="m67.31759 96.0l0 -96.0l28.7874 96.0z" fill-rule="evenodd"/><path fill="#999999" d="m432.10498 0l-19.212585 0l0 96.0l19.212585 0z" fill-rule="evenodd"/><path stroke="#000000" stroke-width="1.0" stroke-linejoin="round" stroke-linecap="butt" d="m432.10498 0l-19.212585 0l0 96.0l19.212585 0z" fill-rule="evenodd"/><path fill="#999999" d="m412.8924 96.0l0 -96.0l-28.787415 96.0z" fill-rule="evenodd"/><path stroke="#000000" stroke-width="1.0" stroke-linejoin="round" stroke-linecap="butt" d="m412.8924 96.0l0 -96.0l-28.787415 96.0z" fill-rule="evenodd"/></g></svg>