<svg version="1.1" viewBox="0.0 0.0 13824.0 13824.0" fill="none" stroke="none" stroke-linecap="square" stroke-miterlimit="10" xmlns:xlink="http://www.w3.org/1999/xlink" xmlns="http://www.w3.org/2000/svg"><clipPath id="p.0"><path d="m0 0l13824.0 0l0 13824.0l-13824.0 0l0 -13824.0z" clip-rule="nonzero"/></clipPath><g clip-path="url(#p.0)"><path fill="#000000" fill-opacity="0.0" d="m0 0l13824.0 0l0 13824.0l-13824.0 0z" fill-rule="evenodd"/><path fill="#666666" d="m0 0l0 13824.0l13824.0 0l0 -13824.0z" fill-rule="evenodd"/><path fill="#828282" d="m14.216186 18.1008l0 2297.9663l2300.981 0l0 -2297.9663z" fill-rule="evenodd"/><path fill="#828282" d="m2315.197 2316.0671l0 2297.9666l2300.9807 0l0 -2297.9666z" fill-rule="evenodd"/><path fill="#828282" d="m4616.2407 4595.9395l0 2297.9663l2300.981 0l0 -2297.9663z" fill-rule="evenodd"/><path fill="#828282" d="m6892.498 6893.906l0 2297.9663l2300.9805 0l0 -2297.9663z" fill-rule="evenodd"/><path fill="#828282" d="m9207.822 9200.919l0 2297.9668l2300.9805 0l0 -2297.9668z" fill-rule="evenodd"/><path fill="#828282" d="m11523.0205 11516.9795l0 2297.9668l2300.9805 0l0 -2297.9668z" fill-rule="evenodd"/><path fill="#828282" d="m11523.0205 2307.02l0 2297.9663l2300.9805 0l0 -2297.9663z" fill-rule="evenodd"/><path fill="#828282" d="m14.216186 4614.0337l0 2297.9663l2300.981 0l0 -2297.9663z" fill-rule="evenodd"/><path fill="#828282" d="m2300.9795 6912.0l0 2297.9668l2300.981 0l0 -2297.9668z" fill-rule="evenodd"/><path fill="#828282" d="m-0.0013793963 9209.967l0 2297.9658l2300.981 0l0 -2297.9658z" fill-rule="evenodd"/><path fill="#828282" d="m4616.1777 9228.061l0 2297.9668l2300.981 0l0 -2297.9668z" fill-rule="evenodd"/><path fill="#828282" d="m2315.197 11526.027l0 2297.9658l2300.9807 0l0 -2297.9658z" fill-rule="evenodd"/><path fill="#828282" d="m6917.2217 2297.973l0 2297.9666l2300.9805 0l0 -2297.9666z" fill-rule="evenodd"/><path fill="#828282" d="m4605.735 0.006576509l0 2297.9663l2300.981 0l0 -2297.9663z" fill-rule="evenodd"/><path fill="#828282" d="m6906.716 11507.933l0 2297.9668l2300.9805 0l0 -2297.9668z" fill-rule="evenodd"/><path fill="#828282" d="m9222.04 9.053688l0 2297.9663l2300.9805 0l0 -2297.9663z" fill-rule="evenodd"/><path fill="#828282" d="m9222.04 4604.9863l0 2297.9668l2300.9805 0l0 -2297.9668z" fill-rule="evenodd"/><path fill="#828282" d="m11508.803 6902.953l0 2297.9658l2300.9814 0l0 -2297.9658z" fill-rule="evenodd"/><path fill="#ffffff" d="m23.307087 208.31244l-46.83465 46.83464l13824.221 13824.22l46.833984 -46.833984z" fill-rule="evenodd"/><path stroke="#000000" stroke-width="1.0" stroke-linejoin="round" stroke-linecap="butt" d="m23.307087 208.31244l-46.83465 46.83464l13824.221 13824.22l46.833984 -46.833984z" fill-rule="evenodd"/><path fill="#ffffff" d="m23.307087 -255.36755l-46.83465 46.83464l13824.221 13824.221l46.833984 -46.83496z" fill-rule="evenodd"/><path stroke="#000000" stroke-width="1.0" stroke-linejoin="round" stroke-linecap="butt" d="m23.307087 -255.36755l-46.83465 46.83464l13824.221 13824.221l46.833984 -46.83496z" fill-rule="evenodd"/><path fill="#f1c232" d="m1171.6779 914.583l0 0c-139.59326 0 -252.75592 113.078125 -252.75592 252.5669l0 0c0 66.984985 26.629578 131.22632 74.03052 178.5918c47.40094 47.36548 111.69037 73.97522 178.7254 73.97522l0 0c139.59326 0 252.75586 -113.078125 252.75586 -252.56702l0 0c0 -139.48877 -113.1626 -252.5669 -252.75586 -252.5669z" fill-rule="evenodd"/><path fill="#f1c232" d="m2307.3303 2049.3691l0 0c-139.59326 0 -252.7561 113.07788 -252.7561 252.5669l0 0c0 66.98486 26.629639 131.22632 74.03052 178.5918c47.40088 47.36548 111.69043 73.9751 178.72559 73.9751l0 0c139.59302 0 252.75586 -113.078125 252.75586 -252.5669l0 0c0 -139.48901 -113.16284 -252.5669 -252.75586 -252.5669z" fill-rule="evenodd"/><path fill="#f1c232" d="m4621.264 4350.6216l0 0c-139.59326 0 -252.75586 113.078125 -252.75586 252.5669l0 0c0 66.98486 26.629883 131.22656 74.03076 178.5918c47.40088 47.365723 111.69043 73.9751 178.7251 73.9751l0 0c139.59326 0 252.75586 -113.078125 252.75586 -252.5669l0 0c0 -139.48877 -113.1626 -252.5669 -252.75586 -252.5669z" fill-rule="evenodd"/><path fill="#f1c232" d="m5771.1265 5510.523l0 0c-139.59326 0 -252.75586 113.078125 -252.75586 252.5669l0 0c0 66.98486 26.629395 131.22656 74.03027 178.5918c47.40088 47.365723 111.69043 73.9751 178.72559 73.9751l0 0c139.59326 0 252.75586 -113.078125 252.75586 -252.5669l0 0c0 -139.48877 -113.1626 -252.5669 -252.75586 -252.5669z" fill-rule="evenodd"/><path fill="#f1c232" d="m8070.8506 7808.493l0 0c-139.59277 0 -252.75586 113.078125 -252.75586 252.5669l0 0c0 66.98486 26.629883 131.22607 74.03076 178.59131c47.40088 47.36621 111.69043 73.975586 178.7251 73.975586l0 0c139.59375 0 252.75586 -113.078125 252.75586 -252.5669l0 0c0 -139.48877 -113.16211 -252.5669 -252.75586 -252.5669z" fill-rule="evenodd"/><path fill="#f1c232" d="m11520.4375 11244.531l0 0c-139.59375 0 -252.75586 113.078125 -252.75586 252.56738l0 0c0 66.984375 26.628906 131.22656 74.03027 178.5918c47.401367 47.365234 111.69043 73.97461 178.72559 73.97461l0 0c139.59277 0 252.75586 -113.078125 252.75586 -252.5664l0 0c0 -139.48926 -113.163086 -252.56738 -252.75586 -252.56738z" fill-rule="evenodd"/><path fill="#f1c232" d="m12670.3 12404.433l0 0c-139.59375 0 -252.75586 113.078125 -252.75586 252.56738l0 0c0 66.984375 26.628906 131.22656 74.03027 178.5918c47.40039 47.365234 111.69043 73.97461 178.72559 73.97461l0 0c139.59277 0 252.75586 -113.07715 252.75586 -252.5664l0 0c0 -139.48926 -113.163086 -252.56738 -252.75586 -252.56738z" fill-rule="evenodd"/><path fill="#f1c232" d="m3471.402 3212.553l0 0c-139.59326 0 -252.75586 113.078125 -252.75586 252.5669l0 0c0 66.98511 26.629639 131.22632 74.03052 178.5918c47.40088 47.36548 111.69043 73.9751 178.72534 73.9751l0 0c139.59326 0 252.75586 -113.07788 252.75586 -252.5669l0 0c0 -139.48877 -113.1626 -252.5669 -252.75586 -252.5669z" fill-rule="evenodd"/><path fill="#f1c232" d="m11267.679 4704.0015l0 0c-139.59277 0 -252.75586 113.07764 -252.75586 252.5669l0 0c0 66.98486 26.629883 131.22607 74.03027 178.5918c47.401367 47.365234 111.69043 73.9751 178.72559 73.9751l0 0c139.59375 0 252.75586 -113.078125 252.75586 -252.5669l0 0c0 -139.48926 -113.16211 -252.5669 -252.75586 -252.5669z" fill-rule="evenodd"/><path fill="#f1c232" d="m10370.575 4704.0015l0 0c-139.59375 0 -252.75586 113.07764 -252.75586 252.5669l0 0c0 66.98486 26.629883 131.22607 74.03027 178.5918c47.401367 47.365234 111.69043 73.9751 178.72559 73.9751l0 0c139.59277 0 252.75586 -113.078125 252.75586 -252.5669l0 0c0 -139.48926 -113.163086 -252.5669 -252.75586 -252.5669z" fill-rule="evenodd"/><path fill="#f1c232" d="m9473.469 4704.0015l0 0c-139.59277 0 -252.75586 113.07764 -252.75586 252.5669l0 0c0 66.98486 26.629883 131.22607 74.03027 178.5918c47.401367 47.365234 111.69043 73.9751 178.72559 73.9751l0 0c139.59277 0 252.75586 -113.078125 252.75586 -252.5669l0 0c0 -139.48926 -113.163086 -252.5669 -252.75586 -252.5669z" fill-rule="evenodd"/><path fill="#f1c232" d="m9119.999 4361.542l0 0c0 -139.48877 -113.163086 -252.5669 -252.75586 -252.5669l0 0c-67.03516 0 -131.32422 26.609375 -178.72559 73.9751c-47.401367 47.365234 -74.03027 111.60693 -74.03027 178.5918l0 0c0 139.48877 113.16211 252.5669 252.75586 252.5669l0 0c139.59277 0 252.75586 -113.078125 252.75586 -252.5669z" fill-rule="evenodd"/><path fill="#f1c232" d="m9119.999 3465.1199l0 0c0 -139.48877 -113.163086 -252.5669 -252.75586 -252.5669l0 0c-67.03516 0 -131.32422 26.60962 -178.72559 73.9751c-47.401367 47.36548 -74.03027 111.60693 -74.03027 178.5918l0 0c0 139.48901 113.16211 252.5669 252.75586 252.5669l0 0c139.59277 0 252.75586 -113.07788 252.75586 -252.5669z" fill-rule="evenodd"/><path fill="#f1c232" d="m9119.999 2568.7004l0 0c0 -139.48877 -113.163086 -252.5669 -252.75586 -252.5669l0 0c-67.03516 0 -131.32422 26.60962 -178.72559 73.9751c-47.401367 47.365723 -74.03027 111.60693 -74.03027 178.5918l0 0c0 139.48901 113.16211 252.56714 252.75586 252.56714l0 0c139.59277 0 252.75586 -113.078125 252.75586 -252.56714z" fill-rule="evenodd"/><path fill="#1155cc" d="m1752.0 11321.761l0 0c-416.9967 0 -755.03937 338.04297 -755.03937 755.03906l0 0c0 200.24902 79.54852 392.2959 221.14594 533.89355c141.59729 141.59766 333.64453 221.14648 533.89343 221.14648l0 0c416.99683 0 755.0393 -338.04297 755.0393 -755.04004l0 0c0 -416.9961 -338.04248 -755.03906 -755.0393 -755.03906z" fill-rule="evenodd"/><path fill="#f1c232" d="m2574.3035 9119.999l0 0c139.59326 0 252.75586 -113.078125 252.75586 -252.5664l0 0c0 -66.98535 -26.629639 -131.22656 -74.03052 -178.5918c-47.40088 -47.36621 -111.69043 -73.975586 -178.72534 -73.975586l0 0c-139.59326 0 -252.75586 113.078125 -252.75586 252.56738l0 0c0 139.48828 113.1626 252.5664 252.75586 252.5664z" fill-rule="evenodd"/><path fill="#f1c232" d="m3471.4072 9119.999l0 0c139.59326 0 252.75586 -113.078125 252.75586 -252.5664l0 0c0 -66.98535 -26.629639 -131.22656 -74.03052 -178.5918c-47.40088 -47.36621 -111.69043 -73.975586 -178.72534 -73.975586l0 0c-139.59326 0 -252.75586 113.078125 -252.75586 252.56738l0 0c0 139.48828 113.1626 252.5664 252.75586 252.5664z" fill-rule="evenodd"/><path fill="#f1c232" d="m4368.5083 9119.999l0 0c139.59326 0 252.75586 -113.078125 252.75586 -252.5664l0 0c0 -66.98535 -26.629395 -131.22656 -74.03027 -178.5918c-47.40088 -47.36621 -111.69043 -73.975586 -178.72559 -73.975586l0 0c-139.59326 0 -252.75586 113.078125 -252.75586 252.56738l0 0c0 139.48828 113.1626 252.5664 252.75586 252.5664z" fill-rule="evenodd"/><path fill="#f1c232" d="m4703.999 9444.511l0 0c0 139.48926 113.1626 252.56738 252.75586 252.56738l0 0c67.03516 0 131.3247 -26.609375 178.72559 -73.975586c47.40088 -47.365234 74.03027 -111.606445 74.03027 -178.5918l0 0c0 -139.48828 -113.1626 -252.5664 -252.75586 -252.5664l0 0c-139.59326 0 -252.75586 113.078125 -252.75586 252.5664z" fill-rule="evenodd"/><path fill="#f1c232" d="m4703.999 10340.933l0 0c0 139.48926 113.1626 252.56738 252.75586 252.56738l0 0c67.03516 0 131.3247 -26.609375 178.72559 -73.975586c47.40088 -47.365234 74.03027 -111.606445 74.03027 -178.5918l0 0c0 -139.48828 -113.1626 -252.5664 -252.75586 -252.5664l0 0c-139.59326 0 -252.75586 113.078125 -252.75586 252.5664z" fill-rule="evenodd"/><path fill="#f1c232" d="m4703.999 11237.353l0 0c0 139.48828 113.1626 252.5664 252.75586 252.5664l0 0c67.03516 0 131.3247 -26.609375 178.72559 -73.97461c47.40088 -47.365234 74.03027 -111.60742 74.03027 -178.5918l0 0c0 -139.48926 -113.1626 -252.56738 -252.75586 -252.56738l0 0c-139.59326 0 -252.75586 113.078125 -252.75586 252.56738z" fill-rule="evenodd"/><path fill="#f1c232" d="m9220.713 8957.478l0 0c-139.59277 0 -252.75586 113.078125 -252.75586 252.56738l0 0c0 66.98535 26.629883 131.22656 74.03027 178.5918c47.401367 47.365234 111.69043 73.975586 178.72559 73.975586l0 0c139.59375 0 252.75586 -113.078125 252.75586 -252.56738l0 0c0 -139.48926 -113.16211 -252.56738 -252.75586 -252.56738z" fill-rule="evenodd"/><path fill="#f1c232" d="m10370.575 10106.463l0 0c-139.59375 0 -252.75586 113.078125 -252.75586 252.56738l0 0c0 66.984375 26.629883 131.22559 74.03027 178.5918c47.401367 47.365234 111.69043 73.97461 178.72559 73.97461l0 0c139.59277 0 252.75586 -113.078125 252.75586 -252.5664l0 0c0 -139.48926 -113.163086 -252.56738 -252.75586 -252.56738z" fill-rule="evenodd"/><path fill="#000000" fill-opacity="0.0" d="m4125.102 2774.6082l-1335.4644 0l0 1392.4094l1335.4644 0z" fill-rule="evenodd"/><path fill="#000000" d="m3336.419 3577.139q34.171875 0 48.953125 -13.4375q14.796875 -13.4375 14.796875 -36.09375q0 -14.59375 -6.15625 -24.578125q-6.140625 -9.984375 -16.125 -15.9375q-9.984375 -5.953125 -23.234375 -8.453125q-13.234375 -2.5 -27.0625 -2.5l-9.21875 0l0 -29.171875l12.671875 0q9.609375 0 19.78125 -1.921875q10.171875 -1.921875 18.609375 -6.90625q8.453125 -5.0 13.828125 -13.640625q5.390625 -8.640625 5.390625 -21.703125q0 -10.75 -3.84375 -18.421875q-3.84375 -7.6875 -10.1875 -12.671875q-6.328125 -5.0 -14.59375 -7.109375q-8.25 -2.109375 -17.46875 -2.109375q-18.421875 0 -31.296875 5.375q-12.859375 5.375 -21.6875 11.140625l-13.828125 -27.265625q4.609375 -3.078125 11.703125 -6.71875q7.109375 -3.65625 15.9375 -6.71875q8.84375 -3.078125 19.015625 -5.1875q10.171875 -2.109375 21.3125 -2.109375q21.125 0 36.484375 5.1875q15.359375 5.171875 25.34375 14.578125q9.984375 9.40625 14.96875 22.28125q5.0 12.859375 5.0 27.828125q0 20.75 -11.90625 35.53125q-11.90625 14.78125 -28.796875 22.453125q10.359375 3.078125 19.953125 8.84375q9.609375 5.75 16.703125 14.59375q7.109375 8.828125 11.53125 20.34375q4.421875 11.515625 4.421875 25.734375q0 17.28125 -5.953125 32.0625q-5.953125 14.78125 -18.4375 25.53125q-12.484375 10.75 -31.296875 16.90625q-18.8125 6.140625 -44.546875 6.140625q-9.984375 0 -20.546875 -1.546875q-10.546875 -1.53125 -19.765625 -3.84375q-9.21875 -2.296875 -16.140625 -4.59375q-6.90625 -2.3125 -9.96875 -3.84375l6.90625 -31.109375q6.53125 3.078125 21.6875 8.078125q15.171875 4.984375 37.0625 4.984375zm279.9353 26.109375q-4.21875 -8.453125 -10.375 -18.8125q-6.140625 -10.375 -13.4375 -21.3125q-7.28125 -10.953125 -14.96875 -21.703125q-7.671875 -10.75 -14.96875 -20.34375q-7.296875 9.59375 -14.984375 20.546875q-7.671875 10.9375 -14.78125 21.890625q-7.109375 10.9375 -13.25 21.3125q-6.140625 10.359375 -10.359375 18.421875l-36.875 0q13.4375 -26.109375 32.0625 -53.171875q18.625 -27.078125 37.0625 -51.65625l-66.046875 -94.859375l40.3125 0l47.625 69.890625l48.0 -69.890625l38.015625 0l-64.515625 92.546875q18.4375 24.96875 37.828125 52.8125q19.390625 27.828125 32.828125 54.328125l-39.171875 0z" fill-rule="nonzero"/><path fill="#000000" fill-opacity="0.0" d="m11031.498 9656.514l-1335.4648 0l0 1392.4092l1335.4648 0z" fill-rule="evenodd"/><path fill="#000000" d="m10242.814 10459.044q34.171875 0 48.953125 -13.4375q14.796875 -13.4375 14.796875 -36.09375q0 -14.59375 -6.15625 -24.578125q-6.140625 -9.984375 -16.125 -15.9375q-9.984375 -5.953125 -23.234375 -8.453125q-13.234375 -2.5 -27.0625 -2.5l-9.21875 0l0 -29.171875l12.671875 0q9.609375 0 19.78125 -1.921875q10.171875 -1.921875 18.609375 -6.90625q8.453125 -5.0 13.828125 -13.640625q5.390625 -8.640625 5.390625 -21.703125q0 -10.75 -3.84375 -18.421875q-3.84375 -7.6875 -10.1875 -12.671875q-6.328125 -5.0 -14.59375 -7.109375q-8.25 -2.109375 -17.46875 -2.109375q-18.421875 0 -31.296875 5.375q-12.859375 5.375 -21.6875 11.140625l-13.828125 -27.265625q4.609375 -3.078125 11.703125 -6.71875q7.109375 -3.65625 15.9375 -6.71875q8.84375 -3.078125 19.015625 -5.1875q10.171875 -2.109375 21.3125 -2.109375q21.125 0 36.484375 5.1875q15.359375 5.171875 25.34375 14.578125q9.984375 9.40625 14.96875 22.28125q5.0 12.859375 5.0 27.828125q0 20.75 -11.90625 35.53125q-11.90625 14.78125 -28.796875 22.453125q10.359375 3.078125 19.953125 8.84375q9.609375 5.75 16.703125 14.59375q7.109375 8.828125 11.53125 20.34375q4.421875 11.515625 4.421875 25.734375q0 17.28125 -5.953125 32.0625q-5.953125 14.78125 -18.4375 25.53125q-12.484375 10.75 -31.296875 16.90625q-18.8125 6.140625 -44.546875 6.140625q-9.984375 0 -20.546875 -1.546875q-10.546875 -1.53125 -19.765625 -3.84375q-9.21875 -2.296875 -16.140625 -4.59375q-6.90625 -2.3125 -9.96875 -3.84375l6.90625 -31.109375q6.53125 3.078125 21.6875 8.078125q15.171875 4.984375 37.0625 4.984375zm279.93555 26.109375q-4.21875 -8.453125 -10.375 -18.8125q-6.140625 -10.375 -13.4375 -21.3125q-7.28125 -10.953125 -14.96875 -21.703125q-7.671875 -10.75 -14.96875 -20.34375q-7.296875 9.59375 -14.984375 20.546875q-7.671875 10.9375 -14.78125 21.890625q-7.109375 10.9375 -13.25 21.3125q-6.140625 10.359375 -10.359375 18.421875l-36.875 0q13.4375 -26.109375 32.0625 -53.171875q18.625 -27.078125 37.0625 -51.65625l-66.046875 -94.859375l40.3125 0l47.625 69.890625l48.0 -69.890625l38.015625 0l-64.515625 92.546875q18.4375 24.96875 37.828125 52.8125q19.390625 27.828125 32.828125 54.328125l-39.171875 0z" fill-rule="nonzero"/><path fill="#f1c232" d="m10626.072 8063.8003l0 0c0 139.4878 -113.16406 252.56494 -252.75781 252.56494l0 0c-67.03613 0 -131.32617 -26.609375 -178.72754 -73.97461c-47.401367 -47.365234 -74.03125 -111.60596 -74.03125 -178.59033l0 0c0 -139.4878 113.16406 -252.56543 252.75879 -252.56543l0 0c139.59375 0 252.75781 113.07764 252.75781 252.56543z" fill-rule="evenodd"/><path fill="#f1c232" d="m8326.35 5765.834l0 0c0 139.4878 -113.16406 252.56494 -252.75879 252.56494l0 0c-67.035645 0 -131.32568 -26.609375 -178.72705 -73.97461c-47.401367 -47.365234 -74.03125 -111.60596 -74.03125 -178.59033l0 0c0 -139.48828 113.163574 -252.56543 252.7583 -252.56543l0 0c139.59473 0 252.75879 113.07715 252.75879 252.56543z" fill-rule="evenodd"/><path fill="#f1c232" d="m7176.4873 4616.8506l0 0c0 139.4878 -113.163574 252.56543 -252.7583 252.56543l0 0c-67.035645 0 -131.32568 -26.609863 -178.72705 -73.97461c-47.401367 -47.365234 -74.03125 -111.606445 -74.03125 -178.59082l0 0c0 -139.4878 113.16406 -252.56494 252.7583 -252.56494l0 0c139.59473 0 252.7583 113.07715 252.7583 252.56494z" fill-rule="evenodd"/><path fill="#f1c232" d="m6026.626 3467.8674l0 0c0 139.48804 -113.163574 252.56519 -252.7583 252.56519l0 0c-67.035645 0 -131.32568 -26.609375 -178.72705 -73.97461c-47.401367 -47.365234 -74.03125 -111.6062 -74.03125 -178.59058l0 0c0 -139.4878 113.163574 -252.56519 252.7583 -252.56519l0 0c139.59473 0 252.7583 113.07739 252.7583 252.56519z" fill-rule="evenodd"/><path fill="#000000" fill-opacity="0.0" d="m9700.126 7367.9507l1335.4688 0l0 1391.7476l-1335.4688 0z" fill-rule="evenodd"/><path fill="#000000" d="m10246.907 8170.4814q34.171875 0 48.953125 -13.4375q14.796875 -13.4375 14.796875 -36.09375q0 -14.59375 -6.15625 -24.578125q-6.140625 -9.984375 -16.125 -15.9375q-9.984375 -5.953125 -23.234375 -8.453125q-13.234375 -2.5 -27.0625 -2.5l-9.21875 0l0 -29.171875l12.671875 0q9.609375 0 19.78125 -1.921875q10.171875 -1.921875 18.609375 -6.90625q8.453125 -5.0 13.828125 -13.640625q5.390625 -8.640625 5.390625 -21.703125q0 -10.75 -3.84375 -18.421875q-3.84375 -7.6875 -10.1875 -12.671875q-6.328125 -5.0 -14.59375 -7.109375q-8.25 -2.109375 -17.46875 -2.109375q-18.421875 0 -31.296875 5.375q-12.859375 5.375 -21.6875 11.140625l-13.828125 -27.265625q4.609375 -3.078125 11.703125 -6.71875q7.109375 -3.65625 15.9375 -6.71875q8.84375 -3.078125 19.015625 -5.1875q10.171875 -2.109375 21.3125 -2.109375q21.125 0 36.484375 5.1875q15.359375 5.171875 25.34375 14.578125q9.984375 9.40625 14.96875 22.28125q5.0 12.859375 5.0 27.828125q0 20.75 -11.90625 35.53125q-11.90625 14.78125 -28.796875 22.453125q10.359375 3.078125 19.953125 8.84375q9.609375 5.75 16.703125 14.59375q7.109375 8.828125 11.53125 20.34375q4.421875 11.515625 4.421875 25.734375q0 17.28125 -5.953125 32.0625q-5.953125 14.78125 -18.4375 25.53125q-12.484375 10.75 -31.296875 16.90625q-18.8125 6.140625 -44.546875 6.140625q-9.984375 0 -20.546875 -1.546875q-10.546875 -1.53125 -19.765625 -3.84375q-9.21875 -2.296875 -16.140625 -4.59375q-6.90625 -2.3125 -9.96875 -3.84375l6.90625 -31.109375q6.53125 3.078125 21.6875 8.078125q15.171875 4.984375 37.0625 4.984375zm279.93457 26.109375q-4.21875 -8.453125 -10.375 -18.8125q-6.140625 -10.375 -13.4375 -21.3125q-7.28125 -10.953125 -14.96875 -21.703125q-7.671875 -10.75 -14.96875 -20.34375q-7.296875 9.59375 -14.984375 20.546875q-7.671875 10.9375 -14.78125 21.890625q-7.109375 10.9375 -13.25 21.3125q-6.140625 10.359375 -10.359375 18.421875l-36.875 0q13.4375 -26.109375 32.0625 -53.171875q18.625 -27.078125 37.0625 -51.65625l-66.046875 -94.859375l40.3125 0l47.625 69.890625l48.0 -69.890625l38.015625 0l-64.515625 92.546875q18.4375 24.96875 37.828125 52.8125q19.390625 27.828125 32.828125 54.328125l-39.171875 0z" fill-rule="nonzero"/><path fill="#f1c232" d="m3221.3862 5765.834l0 0c0 -139.48828 113.163574 -252.56543 252.7583 -252.56543l0 0c67.035645 0 131.32568 26.609375 178.72705 73.97461c47.401367 47.365234 74.03125 111.606445 74.03125 178.59082l0 0c0 139.4878 -113.16382 252.56494 -252.7583 252.56494l0 0c-139.59473 0 -252.7583 -113.07715 -252.7583 -252.56494z" fill-rule="evenodd"/><path fill="#f1c232" d="m5521.1094 8063.8003l0 0c0 -139.4878 113.163574 -252.56543 252.7583 -252.56543l0 0c67.035645 0 131.32568 26.609863 178.72705 73.97461c47.401367 47.365234 74.03125 111.606445 74.03125 178.59082l0 0c0 139.4878 -113.163574 252.56494 -252.7583 252.56494l0 0c-139.59473 0 -252.7583 -113.07715 -252.7583 -252.56494z" fill-rule="evenodd"/><path fill="#f1c232" d="m6680.025 9212.783l0 0c0 -139.4873 113.163574 -252.56543 252.7583 -252.56543l0 0c67.035645 0 131.32568 26.610352 178.72705 73.975586c47.401367 47.364258 74.03125 111.60547 74.03125 178.58984l0 0c0 139.48828 -113.163574 252.56543 -252.7583 252.56543l0 0c-139.59473 0 -252.7583 -113.07715 -252.7583 -252.56543z" fill-rule="evenodd"/><path fill="#f1c232" d="m7820.8325 10361.767l0 0c0 -139.48828 113.163574 -252.56543 252.7583 -252.56543l0 0c67.035645 0 131.32617 26.609375 178.72754 73.97461c47.401367 47.365234 74.03125 111.606445 74.03125 178.59082l0 0c0 139.48828 -113.16406 252.56543 -252.75879 252.56543l0 0c-139.59473 0 -252.7583 -113.07715 -252.7583 -252.56543z" fill-rule="evenodd"/><path fill="#000000" fill-opacity="0.0" d="m2806.3943 5069.979l1335.469 0l0 1391.7476l-1335.469 0z" fill-rule="evenodd"/><path fill="#000000" d="m3353.1755 5872.51q34.171875 0 48.953125 -13.4375q14.796875 -13.4375 14.796875 -36.09375q0 -14.59375 -6.15625 -24.578125q-6.140625 -9.984375 -16.125 -15.9375q-9.984375 -5.953125 -23.234375 -8.453125q-13.234375 -2.5 -27.0625 -2.5l-9.21875 0l0 -29.171875l12.671875 0q9.609375 0 19.78125 -1.921875q10.171875 -1.921875 18.609375 -6.90625q8.453125 -5.0 13.828125 -13.640625q5.390625 -8.640625 5.390625 -21.703125q0 -10.75 -3.84375 -18.421875q-3.84375 -7.6875 -10.1875 -12.671875q-6.328125 -5.0 -14.59375 -7.109375q-8.25 -2.109375 -17.46875 -2.109375q-18.421875 0 -31.296875 5.375q-12.859375 5.375 -21.6875 11.140625l-13.828125 -27.265625q4.609375 -3.078125 11.703125 -6.71875q7.109375 -3.65625 15.9375 -6.71875q8.84375 -3.078125 19.015625 -5.1875q10.171875 -2.109375 21.3125 -2.109375q21.125 0 36.484375 5.1875q15.359375 5.171875 25.34375 14.578125q9.984375 9.40625 14.96875 22.28125q5.0 12.859375 5.0 27.828125q0 20.75 -11.90625 35.53125q-11.90625 14.78125 -28.796875 22.453125q10.359375 3.078125 19.953125 8.84375q9.609375 5.75 16.703125 14.59375q7.109375 8.828125 11.53125 20.34375q4.421875 11.515625 4.421875 25.734375q0 17.28125 -5.953125 32.0625q-5.953125 14.78125 -18.4375 25.53125q-12.484375 10.75 -31.296875 16.90625q-18.8125 6.140625 -44.546875 6.140625q-9.984375 0 -20.546875 -1.546875q-10.546875 -1.53125 -19.765625 -3.84375q-9.21875 -2.296875 -16.140625 -4.59375q-6.90625 -2.3125 -9.96875 -3.84375l6.90625 -31.109375q6.53125 3.078125 21.6875 8.078125q15.171875 4.984375 37.0625 4.984375zm279.93555 26.109375q-4.21875 -8.453125 -10.375 -18.8125q-6.140625 -10.375 -13.4375 -21.3125q-7.28125 -10.953125 -14.96875 -21.703125q-7.671875 -10.75 -14.96875 -20.34375q-7.296875 9.59375 -14.984375 20.546875q-7.671875 10.9375 -14.78125 21.890625q-7.109375 10.9375 -13.25 21.3125q-6.140625 10.359375 -10.359375 18.421875l-36.875 0q13.4375 -26.109375 32.0625 -53.171875q18.625 -27.078125 37.0625 -51.65625l-66.046875 -94.859375l40.3125 0l47.625 69.890625l48.0 -69.890625l38.015625 0l-64.515625 92.546875q18.4375 24.96875 37.828125 52.8125q19.390625 27.828125 32.828125 54.328125l-39.171875 0z" fill-rule="nonzero"/><path fill="#cc0000" d="m12072.0 992.16064l0 0c-416.99707 0 -755.03906 338.0426 -755.03906 755.0393l0 0c0 200.2489 79.54785 392.29614 221.14551 533.89355c141.59766 141.59741 333.64453 221.14575 533.89355 221.14575l0 0c416.99707 0 755.03906 -338.04248 755.03906 -755.0393l0 0c0 -416.9967 -338.042 -755.0393 -755.03906 -755.0393z" fill-rule="evenodd"/><path fill="#1155cc" d="m67.75244 3241.0696l0 -919.78955l92.049286 0l0 919.78955z" fill-rule="evenodd"/><path fill="#cc0000" d="m159.74136 3241.0696l0 -919.78955l92.049286 0l0 919.78955z" fill-rule="evenodd"/><path fill="#000000" fill-opacity="0.0" d="m4621.204 13805.921l0 -2297.9844" fill-rule="evenodd"/><path stroke="#ffffff" stroke-width="1.0" stroke-linejoin="round" stroke-linecap="butt" d="m4621.204 13805.921l0 -2297.9844" fill-rule="evenodd"/><path fill="#000000" fill-opacity="0.0" d="m9227.443 2307.0237l0 -2297.9844" fill-rule="evenodd"/><path stroke="#ffffff" stroke-width="1.0" stroke-linejoin="round" stroke-linecap="butt" d="m9227.443 2307.0237l0 -2297.9844" fill-rule="evenodd"/><path fill="#000000" fill-opacity="0.0" d="m11502.5205 4600.47l2314.8027 9.0390625" fill-rule="evenodd"/><path stroke="#ffffff" stroke-width="1.0" stroke-linejoin="round" stroke-linecap="butt" d="m11502.5205 4600.47l2314.8027 9.0390625" fill-rule="evenodd"/><path fill="#000000" fill-opacity="0.0" d="m4.9658795E-4 9209.98l2314.8032 9.040039" fill-rule="evenodd"/><path stroke="#ffffff" stroke-width="1.0" stroke-linejoin="round" stroke-linecap="butt" d="m4.9658795E-4 9209.98l2314.8032 9.040039" fill-rule="evenodd"/><path fill="#000000" fill-opacity="0.0" d="m1164.7065 4614.0337l-1145.3228 0" fill-rule="evenodd"/><path stroke="#ffffff" stroke-width="1.0" stroke-linejoin="round" stroke-linecap="butt" d="m1164.7065 4614.0337l-1145.3228 0" fill-rule="evenodd"/><path fill="#000000" fill-opacity="0.0" d="m13823.999 9200.934l-1145.3223 0" fill-rule="evenodd"/><path stroke="#ffffff" stroke-width="1.0" stroke-linejoin="round" stroke-linecap="butt" d="m13823.999 9200.934l-1145.3223 0" fill-rule="evenodd"/><path fill="#000000" fill-opacity="0.0" d="m11499.502 13805.921l4.536133 -1156.5039" fill-rule="evenodd"/><path stroke="#ffffff" stroke-width="1.0" stroke-linejoin="round" stroke-linecap="butt" d="m11499.502 13805.921l4.536133 -1156.5039" fill-rule="evenodd"/><path fill="#000000" fill-opacity="0.0" d="m2305.0063 1191.7141l4.5354004 -1156.5039" fill-rule="evenodd"/><path stroke="#ffffff" stroke-width="1.0" stroke-linejoin="round" stroke-linecap="butt" d="m2305.0063 1191.7141l4.5354004 -1156.5039" fill-rule="evenodd"/><path fill="#1155cc" d="m3242.0544 248.02101l-920.4929 0l0 -91.97897l920.4929 0z" fill-rule="evenodd"/><path fill="#cc0000" d="m3242.0544 156.10236l-920.4929 0l0 -91.978966l920.4929 0z" fill-rule="evenodd"/><path fill="#ffffff" d="m9249.118 12672.0l-66.23633 0l0 1152.0l66.23633 0z" fill-rule="evenodd"/><path stroke="#000000" stroke-width="1.0" stroke-linejoin="round" stroke-linecap="butt" d="m9249.118 12672.0l-66.23633 0l0 1152.0l66.23633 0z" fill-rule="evenodd"/><path fill="#000000" d="m9193.101 13254.92l0 -9.671875l1.46875 0l0 1.46875q0.5625 -1.03125 1.03125 -1.359375q0.484375 -0.328125 1.0625 -0.328125q0.828125 0 1.6875 0.53125l-0.5625 1.515625q-0.609375 -0.359375 -1.203125 -0.359375q-0.546875 0 -0.96875 0.328125q-0.421875 0.328125 -0.609375 0.890625q-0.28125 0.875 -0.28125 1.921875l0 5.0625l-1.625 0z" fill-rule="nonzero"/><path fill="#1155cc" d="m10582.025 13759.539l919.78906 0l0 -92.04883l-919.78906 0z" fill-rule="evenodd"/><path fill="#cc0000" d="m10582.025 13667.55l919.78906 0l0 -92.04883l-919.78906 0z" fill-rule="evenodd"/><path fill="#1155cc" d="m13572.691 10582.634l0 920.4922l91.978516 0l0 -920.4922z" fill-rule="evenodd"/><path fill="#cc0000" d="m13664.609 10582.634l0 920.4922l91.97949 0l0 -920.4922z" fill-rule="evenodd"/><path fill="#ffffff" d="m4641.118 0l-66.23633 0l0 1152.0l66.23633 0z" fill-rule="evenodd"/><path stroke="#000000" stroke-width="1.0" stroke-linejoin="round" stroke-linecap="butt" d="m4641.118 0l-66.23633 0l0 1152.0l66.23633 0z" fill-rule="evenodd"/><path fill="#000000" d="m4585.1006 582.92l0 -9.671875l1.46875 0l0 1.46875q0.5625 -1.03125 1.03125 -1.359375q0.484375 -0.328125 1.0625 -0.328125q0.828125 0 1.6875 0.53125l-0.5625 1.515625q-0.609375 -0.359375 -1.203125 -0.359375q-0.546875 0 -0.96875 0.328125q-0.421875 0.328125 -0.609375 0.890625q-0.28125 0.875 -0.28125 1.921875l0 5.0625l-1.625 0z" fill-rule="nonzero"/><path fill="#ffffff" d="m1152.0 2270.8818l0 66.23633l-1152.0 0l0 -66.23633z" fill-rule="evenodd"/><path stroke="#000000" stroke-width="1.0" stroke-linejoin="round" stroke-linecap="butt" d="m1152.0 2270.8818l0 66.23633l-1152.0 0l0 -66.23633z" fill-rule="evenodd"/><path fill="#000000" d="m569.08 2281.1006l9.671875 0l0 1.46875l-1.46875 0q1.03125 0.5625 1.359375 1.03125q0.328125 0.484375 0.328125 1.0625q0 0.828125 -0.53125 1.6875l-1.515625 -0.5625q0.359375 -0.609375 0.359375 -1.203125q0 -0.546875 -0.328125 -0.96875q-0.328125 -0.421875 -0.890625 -0.609375q-0.875 -0.28125 -1.921875 -0.28125l-5.0625 0l0 -1.625z" fill-rule="nonzero"/><path fill="#ffffff" d="m13824.0 11486.882l0 66.23633l-1152.0 0l0 -66.23633z" fill-rule="evenodd"/><path stroke="#000000" stroke-width="1.0" stroke-linejoin="round" stroke-linecap="butt" d="m13824.0 11486.882l0 66.23633l-1152.0 0l0 -66.23633z" fill-rule="evenodd"/><path fill="#000000" d="m13241.08 11497.101l9.671875 0l0 1.46875l-1.46875 0q1.03125 0.5625 1.359375 1.03125q0.328125 0.484375 0.328125 1.0625q0 0.828125 -0.53125 1.6875l-1.515625 -0.5625q0.359375 -0.609375 0.359375 -1.203125q0 -0.546875 -0.328125 -0.96875q-0.328125 -0.421875 -0.890625 -0.609375q-0.875 -0.28125 -1.921875 -0.28125l-5.0625 0l0 -1.625z" fill-rule="nonzero"/><path fill="#1155cc" d="m9120.0 2304.0l192.0 0l0 2400.0l-192.0 0z" fill-rule="evenodd"/><path fill="#1155cc" d="m11520.0 4512.0l0 192.0l-2400.0 0l0 -192.0z" fill-rule="evenodd"/><path fill="#cc0000" d="m4704.0 11520.0l-192.0 0l0 -2400.0l192.0 0z" fill-rule="evenodd"/><path fill="#cc0000" d="m2304.0 9312.0l0 -192.0l2400.0 0l0 192.0z" fill-rule="evenodd"/></g></svg>