<svg version="1.1" viewBox="0.0 0.0 288.0 288.0" fill="none" stroke="none" stroke-linecap="square" stroke-miterlimit="10" xmlns:xlink="http://www.w3.org/1999/xlink" xmlns="http://www.w3.org/2000/svg"><clipPath id="p.0"><path d="m0 0l288.0 0l0 288.0l-288.0 0l0 -288.0z" clip-rule="nonzero"/></clipPath><g clip-path="url(#p.0)"><path fill="#000000" fill-opacity="0.0" d="m0 0l288.0 0l0 288.0l-288.0 0z" fill-rule="evenodd"/><path fill="#666666" d="m0 0l288.0 0l0 288.0l-288.0 0z" fill-rule="evenodd"/><path fill="#828282" d="m-0.001312336 -0.001312336l48.0 0l0 48.0l-48.0 0z" fill-rule="evenodd"/><path fill="#828282" d="m47.998688 47.998688l48.0 0l0 48.0l-48.0 0z" fill-rule="evenodd"/><path fill="#828282" d="m95.620735 96.0l47.999992 0l0 48.0l-47.999992 0z" fill-rule="evenodd"/><path fill="#828282" d="m143.62073 143.48425l48.0 0l0 48.0l-48.0 0z" fill-rule="evenodd"/><path fill="#828282" d="m191.80971 191.78346l48.0 0l0 48.0l-48.0 0z" fill-rule="evenodd"/><path fill="#828282" d="m240.18767 240.08005l47.999985 0l0 48.0l-47.999985 0z" fill-rule="evenodd"/><path fill="#828282" d="m47.80971 240.08005l47.999996 0l0 48.0l-47.999996 0z" fill-rule="evenodd"/><path fill="#828282" d="m95.99869 -0.001312336l48.0 0l0 48.0l-48.0 0z" fill-rule="evenodd"/><path fill="#828282" d="m143.99869 47.7021l48.0 0l0 48.000004l-48.0 0z" fill-rule="evenodd"/><path fill="#828282" d="m191.99869 -0.29790026l48.0 0l0 48.0l-48.0 0z" fill-rule="evenodd"/><path fill="#828282" d="m192.37665 95.99869l48.0 0l0 48.0l-48.0 0z" fill-rule="evenodd"/><path fill="#828282" d="m240.37665 47.998688l48.0 0l0 48.0l-48.0 0z" fill-rule="evenodd"/><path fill="#828282" d="m47.620735 144.0l48.0 0l0 48.0l-48.0 0z" fill-rule="evenodd"/><path fill="#828282" d="m-0.3792651 95.78084l48.0 0l0 48.0l-48.0 0z" fill-rule="evenodd"/><path fill="#828282" d="m239.99869 143.78084l48.0 0l0 48.0l-48.0 0z" fill-rule="evenodd"/><path fill="#828282" d="m-0.19028871 192.08005l48.0 0l0 48.0l-48.0 0z" fill-rule="evenodd"/><path fill="#828282" d="m95.80971 192.08005l48.0 0l0 48.0l-48.0 0z" fill-rule="evenodd"/><path fill="#828282" d="m143.80971 239.78346l48.0 0l0 48.000015l-48.0 0z" fill-rule="evenodd"/><path fill="#000000" fill-opacity="0.0" d="m3.3018372 0.36745408l284.88187 284.88187" fill-rule="evenodd"/><path stroke="#ffffff" stroke-width="1.0" stroke-linejoin="round" stroke-linecap="butt" d="m3.3018372 0.36745408l284.88187 284.88187" fill-rule="evenodd"/><path fill="#000000" fill-opacity="0.0" d="m0.35580525 3.1087618l284.8819 284.8819" fill-rule="evenodd"/><path stroke="#ffffff" stroke-width="1.0" stroke-linejoin="round" stroke-linecap="butt" d="m0.35580525 3.1087618l284.8819 284.8819" fill-rule="evenodd"/><path fill="#f1c232" d="m18.72441 24.0l0 0c0 -2.9136276 2.3619633 -5.275591 5.275591 -5.275591l0 0c1.3991737 0 2.7410412 0.55582047 3.7304058 1.5451851c0.9893646 0.9893646 1.5451851 2.331232 1.5451851 3.7304058l0 0c0 2.9136276 -2.3619633 5.275591 -5.275591 5.275591l0 0c-2.9136276 0 -5.275591 -2.3619633 -5.275591 -5.275591z" fill-rule="evenodd"/><path fill="#f1c232" d="m42.427822 47.70341l0 0c0 -2.9136276 2.3619614 -5.275589 5.275589 -5.275589l0 0c1.3991737 0 2.741043 0.55582047 3.7304077 1.5451851c0.9893646 0.9893646 1.5451851 2.3312302 1.5451851 3.730404l0 0c0 2.9136276 -2.3619652 5.275593 -5.275593 5.275593l0 0c-2.9136276 0 -5.275589 -2.3619652 -5.275589 -5.275593z" fill-rule="evenodd"/><path fill="#f1c232" d="m90.49638 96.0l0 0c0 -2.9136276 2.361969 -5.275589 5.2755966 -5.275589l0 0c1.3991699 0 2.7410355 0.55581665 3.7304 1.5451813c0.98937225 0.9893646 1.5451889 2.3312378 1.5451889 3.7304077l0 0c0 2.9136276 -2.3619614 5.275589 -5.275589 5.275589l0 0c-2.9136276 0 -5.2755966 -2.3619614 -5.2755966 -5.275589z" fill-rule="evenodd"/><path fill="#f1c232" d="m114.72441 120.0l0 0c0 -2.9136276 2.3619614 -5.275589 5.275589 -5.275589l0 0c1.3991699 0 2.741043 0.55581665 3.7304077 1.5451813c0.9893646 0.9893646 1.5451813 2.3312378 1.5451813 3.7304077l0 0c0 2.9136276 -2.3619614 5.275589 -5.275589 5.275589l0 0c-2.9136276 0 -5.275589 -2.3619614 -5.275589 -5.275589z" fill-rule="evenodd"/><path fill="#f1c232" d="m162.72441 168.0l0 0c0 -2.9136353 2.3619537 -5.275589 5.275589 -5.275589l0 0c1.3991699 0 2.741043 0.55581665 3.7304077 1.5451813c0.9893646 0.9893646 1.5451813 2.3312378 1.5451813 3.7304077l0 0c0 2.9136353 -2.3619537 5.275589 -5.275589 5.275589l0 0c-2.9136353 0 -5.275589 -2.3619537 -5.275589 -5.275589z" fill-rule="evenodd"/><path fill="#f1c232" d="m114.72441 168.0l0 0c0 -2.9136353 2.3619614 -5.275589 5.275589 -5.275589l0 0c1.3991699 0 2.741043 0.55581665 3.7304077 1.5451813c0.9893646 0.9893646 1.5451813 2.3312378 1.5451813 3.7304077l0 0c0 2.9136353 -2.3619614 5.275589 -5.275589 5.275589l0 0c-2.9136276 0 -5.275589 -2.3619537 -5.275589 -5.275589z" fill-rule="evenodd"/><path fill="#f1c232" d="m234.49638 240.0l0 0c0 -2.9136353 2.361969 -5.275589 5.275589 -5.275589l0 0c1.3991852 0 2.741043 0.55581665 3.7304077 1.5451813c0.9893646 0.9893646 1.5451813 2.3312378 1.5451813 3.7304077l0 0c0 2.9136353 -2.3619537 5.275589 -5.275589 5.275589l0 0c-2.91362 0 -5.275589 -2.3619537 -5.275589 -5.275589z" fill-rule="evenodd"/><path fill="#f1c232" d="m258.7244 264.0l0 0c0 -2.9136353 2.361969 -5.2756042 5.2756042 -5.2756042l0 0c1.3991699 0 2.7410278 0.55584717 3.7304077 1.5451965c0.98934937 0.9893799 1.5451965 2.3312378 1.5451965 3.7304077l0 0c0 2.9136353 -2.361969 5.2756042 -5.2756042 5.2756042l0 0c-2.9136353 0 -5.2756042 -2.361969 -5.2756042 -5.2756042z" fill-rule="evenodd"/><path fill="#f1c232" d="m66.72441 72.0l0 0c0 -2.9136276 2.3619614 -5.275589 5.275589 -5.275589l0 0c1.3991699 0 2.741043 0.55581665 3.7304077 1.5451813c0.9893646 0.9893646 1.5451813 2.3312378 1.5451813 3.7304077l0 0c0 2.9136276 -2.3619614 5.275589 -5.275589 5.275589l0 0c-2.9136276 0 -5.275589 -2.3619614 -5.275589 -5.275589z" fill-rule="evenodd"/><path fill="#f1c232" d="m138.72441 192.0l0 0c0 -2.9136353 2.3619537 -5.275589 5.275589 -5.275589l0 0c1.3991699 0 2.741043 0.55581665 3.7304077 1.5451813c0.9893646 0.9893646 1.5451813 2.3312378 1.5451813 3.7304077l0 0c0 2.9136353 -2.3619537 5.275589 -5.275589 5.275589l0 0c-2.9136353 0 -5.275589 -2.3619537 -5.275589 -5.275589z" fill-rule="evenodd"/><path fill="#f1c232" d="m96.0 234.72441l0 0c0 -2.9136353 2.3619614 -5.275589 5.275589 -5.275589l0 0c1.3991776 0 2.741043 0.55581665 3.7304077 1.5451813c0.9893646 0.9893646 1.5451813 2.3312378 1.5451813 3.7304077l0 0c0 2.91362 -2.3619614 5.275589 -5.275589 5.275589l0 0c-2.9136276 0 -5.275589 -2.361969 -5.275589 -5.275589z" fill-rule="evenodd"/><path fill="#f1c232" d="m96.0 216.0l0 0c0 -2.9136353 2.3619614 -5.275589 5.275589 -5.275589l0 0c1.3991776 0 2.741043 0.55581665 3.7304077 1.5451813c0.9893646 0.9893646 1.5451813 2.3312378 1.5451813 3.7304077l0 0c0 2.9136353 -2.3619614 5.275589 -5.275589 5.275589l0 0c-2.9136276 0 -5.275589 -2.3619537 -5.275589 -5.275589z" fill-rule="evenodd"/><path fill="#f1c232" d="m96.0 197.27559l0 0c0 -2.91362 2.3619614 -5.275589 5.275589 -5.275589l0 0c1.3991776 0 2.741043 0.55581665 3.7304077 1.5451813c0.9893646 0.9893646 1.5451813 2.3312378 1.5451813 3.7304077l0 0c0 2.9136353 -2.3619614 5.275589 -5.275589 5.275589l0 0c-2.9136276 0 -5.275589 -2.3619537 -5.275589 -5.275589z" fill-rule="evenodd"/><path fill="#f1c232" d="m90.72441 192.0l0 0c-2.9136276 0 -5.275589 -2.361969 -5.275589 -5.275589l0 0c0 -1.3991699 0.55581665 -2.741043 1.5451813 -3.7304077c0.9893646 -0.9893646 2.3312302 -1.5451813 3.7304077 -1.5451813l0 0c2.9136276 0 5.275589 2.3619537 5.275589 5.275589l0 0c0 2.91362 -2.3619614 5.275589 -5.275589 5.275589z" fill-rule="evenodd"/><path fill="#f1c232" d="m72.0 192.0l0 0c-2.9136276 0 -5.275589 -2.361969 -5.275589 -5.275589l0 0c0 -1.3991699 0.55581665 -2.741043 1.5451813 -3.7304077c0.9893646 -0.9893646 2.3312378 -1.5451813 3.7304077 -1.5451813l0 0c2.9136276 0 5.275589 2.3619537 5.275589 5.275589l0 0c0 2.91362 -2.3619614 5.275589 -5.275589 5.275589z" fill-rule="evenodd"/><path fill="#f1c232" d="m53.27559 192.0l0 0c-2.9136276 0 -5.275589 -2.361969 -5.275589 -5.275589l0 0c0 -1.3991699 0.55582047 -2.741043 1.5451851 -3.7304077c0.9893646 -0.9893646 2.3312302 -1.5451813 3.730404 -1.5451813l0 0c2.9136314 0 5.275593 2.3619537 5.275593 5.275589l0 0c0 2.91362 -2.3619614 5.275589 -5.275593 5.275589z" fill-rule="evenodd"/><path fill="#000000" fill-opacity="0.0" d="m48.187664 192.28215l47.622044 -0.28346252" fill-rule="evenodd"/><path stroke="#1155cc" stroke-width="3.0" stroke-linejoin="round" stroke-linecap="butt" d="m48.187664 192.28215l47.622044 -0.28346252" fill-rule="evenodd"/><path fill="#000000" fill-opacity="0.0" d="m95.80971 239.99869l0 -48.0" fill-rule="evenodd"/><path stroke="#1155cc" stroke-width="3.0" stroke-linejoin="round" stroke-linecap="butt" d="m95.80971 239.99869l0 -48.0" fill-rule="evenodd"/><path fill="#000000" fill-opacity="0.0" d="m-0.001312336 215.99869l72.0 72.0" fill-rule="evenodd"/><path stroke="#ffffff" stroke-width="3.0" stroke-linejoin="round" stroke-linecap="butt" d="m-0.001312336 215.99869l72.0 72.0" fill-rule="evenodd"/><path fill="#000000" fill-opacity="0.0" d="m215.99869 -0.001312336l72.0 72.0" fill-rule="evenodd"/><path stroke="#ffffff" stroke-width="3.0" stroke-linejoin="round" stroke-linecap="butt" d="m215.99869 -0.001312336l72.0 72.0" fill-rule="evenodd"/><path fill="#1155cc" d="m236.03568 36.121235l0 0c0 -8.74958 7.092926 -15.842518 15.842514 -15.842518l0 0c4.201706 0 8.231308 1.669117 11.202347 4.6401653c2.9710693 2.9710503 4.640167 7.000656 4.640167 11.202353l0 0c0 8.749584 -7.092926 15.842522 -15.842514 15.842522l0 0c-8.749588 0 -15.842514 -7.0929375 -15.842514 -15.842522z" fill-rule="evenodd"/><path fill="#f1c232" d="m191.62204 53.27559l0 0c0 2.9136314 -2.3619537 5.275593 -5.275589 5.275593l0 0c-1.3991699 0 -2.7410278 -0.55582047 -3.7303925 -1.5451851c-0.9893799 -0.9893646 -1.5451965 -2.331234 -1.5451965 -3.7304077l0 0c0 -2.9136276 2.361969 -5.275589 5.275589 -5.275589l0 0c2.9136353 0 5.275589 2.3619614 5.275589 5.275589z" fill-rule="evenodd"/><path fill="#f1c232" d="m191.62204 72.0l0 0c0 2.9136276 -2.3619537 5.275589 -5.275589 5.275589l0 0c-1.3991699 0 -2.7410278 -0.55581665 -3.7303925 -1.5451813c-0.9893799 -0.9893646 -1.5451965 -2.3312378 -1.5451965 -3.7304077l0 0c0 -2.9136276 2.361969 -5.275589 5.275589 -5.275589l0 0c2.9136353 0 5.275589 2.3619614 5.275589 5.275589z" fill-rule="evenodd"/><path fill="#f1c232" d="m191.62204 90.72441l0 0c0 2.9136276 -2.3619537 5.275589 -5.275589 5.275589l0 0c-1.3991699 0 -2.7410278 -0.55581665 -3.7303925 -1.5451813c-0.9893799 -0.98937225 -1.5451965 -2.3312378 -1.5451965 -3.7304077l0 0c0 -2.9136276 2.361969 -5.275589 5.275589 -5.275589l0 0c2.9136353 0 5.275589 2.3619614 5.275589 5.275589z" fill-rule="evenodd"/><path fill="#f1c232" d="m196.89764 96.0l0 0c2.91362 0 5.275589 2.3619614 5.275589 5.275589l0 0c0 1.3991776 -0.55581665 2.741043 -1.5451965 3.7304077c-0.9893646 0.9893646 -2.3312225 1.5451813 -3.7303925 1.5451813l0 0c-2.9136353 0 -5.2756042 -2.3619614 -5.2756042 -5.275589l0 0c0 -2.9136276 2.361969 -5.275589 5.2756042 -5.275589z" fill-rule="evenodd"/><path fill="#f1c232" d="m215.62204 96.0l0 0c2.9136353 0 5.2756042 2.3619614 5.2756042 5.275589l0 0c0 1.3991776 -0.5558319 2.741043 -1.5451965 3.7304077c-0.9893646 0.9893646 -2.3312225 1.5451813 -3.7304077 1.5451813l0 0c-2.91362 0 -5.275589 -2.3619614 -5.275589 -5.275589l0 0c0 -2.9136276 2.361969 -5.275589 5.275589 -5.275589z" fill-rule="evenodd"/><path fill="#f1c232" d="m234.34645 96.0l0 0c2.9136353 0 5.275589 2.3619614 5.275589 5.275589l0 0c0 1.3991776 -0.55581665 2.741043 -1.5451813 3.7304077c-0.9893646 0.9893646 -2.3312225 1.5451813 -3.7304077 1.5451813l0 0c-2.91362 0 -5.275589 -2.3619614 -5.275589 -5.275589l0 0c0 -2.9136276 2.361969 -5.275589 5.275589 -5.275589z" fill-rule="evenodd"/><path fill="#000000" fill-opacity="0.0" d="m191.99869 47.998688l0 48.0" fill-rule="evenodd"/><path stroke="#cc0000" stroke-width="3.0" stroke-linejoin="round" stroke-linecap="butt" d="m191.99869 47.998688l0 48.0" fill-rule="evenodd"/><path fill="#000000" fill-opacity="0.0" d="m239.62073 95.715225l-47.62204 0.28346252" fill-rule="evenodd"/><path stroke="#cc0000" stroke-width="3.0" stroke-linejoin="round" stroke-linecap="butt" d="m239.62073 95.715225l-47.62204 0.28346252" fill-rule="evenodd"/><path fill="#f1c232" d="m162.72441 216.0l0 0c0 -2.9136353 2.3619537 -5.275589 5.275589 -5.275589l0 0c1.3991699 0 2.741043 0.55581665 3.7304077 1.5451813c0.9893646 0.9893646 1.5451813 2.3312378 1.5451813 3.7304077l0 0c0 2.9136353 -2.3619537 5.275589 -5.275589 5.275589l0 0c-2.9136353 0 -5.275589 -2.3619537 -5.275589 -5.275589z" fill-rule="evenodd"/><path fill="#f1c232" d="m186.72441 192.0l0 0c0 -2.9136353 2.3619537 -5.275589 5.275589 -5.275589l0 0c1.3991699 0 2.741043 0.55581665 3.7304077 1.5451813c0.9893646 0.9893646 1.5451813 2.3312378 1.5451813 3.7304077l0 0c0 2.9136353 -2.3619537 5.275589 -5.275589 5.275589l0 0c-2.9136353 0 -5.275589 -2.3619537 -5.275589 -5.275589z" fill-rule="evenodd"/><path fill="#f1c232" d="m210.72441 216.0l0 0c0 -2.9136353 2.3619537 -5.275589 5.275589 -5.275589l0 0c1.3991699 0 2.741043 0.55581665 3.7304077 1.5451813c0.9893646 0.9893646 1.5451813 2.3312378 1.5451813 3.7304077l0 0c0 2.9136353 -2.3619537 5.275589 -5.275589 5.275589l0 0c-2.9136353 0 -5.275589 -2.3619537 -5.275589 -5.275589z" fill-rule="evenodd"/><path fill="#f1c232" d="m66.72441 120.0l0 0c0 -2.9136276 2.3619614 -5.275589 5.275589 -5.275589l0 0c1.3991699 0 2.741043 0.55581665 3.7304077 1.5451813c0.9893646 0.9893646 1.5451813 2.3312378 1.5451813 3.7304077l0 0c0 2.9136276 -2.3619614 5.275589 -5.275589 5.275589l0 0c-2.9136276 0 -5.275589 -2.3619614 -5.275589 -5.275589z" fill-rule="evenodd"/><path fill="#f1c232" d="m173.27559 120.0l0 0c0 2.9136276 -2.3619537 5.275589 -5.275589 5.275589l0 0c-1.3991699 0 -2.741043 -0.55581665 -3.7304077 -1.5451813c-0.9893646 -0.9893646 -1.5451813 -2.3312378 -1.5451813 -3.7304077l0 0c0 -2.9136276 2.3619537 -5.275589 5.275589 -5.275589l0 0c2.9136353 0 5.275589 2.3619614 5.275589 5.275589z" fill-rule="evenodd"/><path fill="#f1c232" d="m149.08661 96.0l0 0c0 2.9136276 -2.3619537 5.275589 -5.275589 5.275589l0 0c-1.3991699 0 -2.741043 -0.55581665 -3.7304077 -1.5451813c-0.9893646 -0.9893646 -1.5451813 -2.3312378 -1.5451813 -3.7304077l0 0c0 -2.9136276 2.361969 -5.275589 5.275589 -5.275589l0 0c2.9136353 0 5.275589 2.3619614 5.275589 5.275589z" fill-rule="evenodd"/><path fill="#f1c232" d="m125.27559 72.0l0 0c0 2.9136276 -2.3619614 5.275589 -5.275589 5.275589l0 0c-1.3991699 0 -2.741043 -0.55581665 -3.7304077 -1.5451813c-0.9893646 -0.9893646 -1.5451813 -2.3312378 -1.5451813 -3.7304077l0 0c0 -2.9136276 2.3619614 -5.275589 5.275589 -5.275589l0 0c2.9136276 0 5.275589 2.3619614 5.275589 5.275589z" fill-rule="evenodd"/><path fill="#f1c232" d="m221.27559 168.0l0 0c0 2.9136353 -2.3619537 5.275589 -5.275589 5.275589l0 0c-1.3991699 0 -2.741043 -0.55581665 -3.7304077 -1.5451813c-0.9893646 -0.9893646 -1.5451813 -2.3312378 -1.5451813 -3.7304077l0 0c0 -2.9136353 2.3619537 -5.275589 5.275589 -5.275589l0 0c2.9136353 0 5.275589 2.3619537 5.275589 5.275589z" fill-rule="evenodd"/><path fill="#000000" fill-opacity="0.0" d="m58.17504 57.171577l27.874016 0l0 29.070862l-27.874016 0z" fill-rule="evenodd"/><path fill="#000000" d="m68.98754 73.3047q0.703125 0 1.015625 -0.28125q0.3125 -0.28125 0.3125 -0.75q0 -0.296875 -0.140625 -0.5q-0.125 -0.21875 -0.328125 -0.34375q-0.203125 -0.125 -0.484375 -0.171875q-0.28125 -0.046875 -0.5625 -0.046875l-0.1875 0l0 -0.609375l0.265625 0q0.1875 0 0.390625 -0.046875q0.21875 -0.046875 0.390625 -0.140625q0.1875 -0.109375 0.296875 -0.28125q0.109375 -0.1875 0.109375 -0.453125q0 -0.234375 -0.078125 -0.390625q-0.078125 -0.15625 -0.21875 -0.25q-0.125 -0.109375 -0.296875 -0.15625q-0.171875 -0.046875 -0.359375 -0.046875q-0.390625 0 -0.65625 0.109375q-0.265625 0.109375 -0.453125 0.234375l-0.28125 -0.5625q0.09375 -0.0625 0.234375 -0.140625q0.15625 -0.078125 0.328125 -0.140625q0.1875 -0.0625 0.40625 -0.109375q0.21875 -0.046875 0.4375 -0.046875q0.453125 0 0.765625 0.109375q0.328125 0.109375 0.53125 0.3125q0.203125 0.1875 0.296875 0.453125q0.109375 0.265625 0.109375 0.578125q0 0.4375 -0.25 0.75q-0.234375 0.296875 -0.59375 0.453125q0.21875 0.078125 0.421875 0.203125q0.203125 0.109375 0.34375 0.296875q0.15625 0.171875 0.234375 0.421875q0.09375 0.234375 0.09375 0.53125q0 0.359375 -0.125 0.671875q-0.125 0.3125 -0.390625 0.53125q-0.25 0.21875 -0.640625 0.359375q-0.390625 0.125 -0.921875 0.125q-0.21875 0 -0.4375 -0.03125q-0.21875 -0.03125 -0.40625 -0.09375q-0.1875 -0.046875 -0.34375 -0.09375q-0.140625 -0.046875 -0.203125 -0.078125l0.140625 -0.640625q0.140625 0.0625 0.453125 0.171875q0.328125 0.09375 0.78125 0.09375zm5.8244476 0.546875q-0.078125 -0.171875 -0.21875 -0.390625q-0.125 -0.21875 -0.28125 -0.4375q-0.140625 -0.234375 -0.3125 -0.453125q-0.15625 -0.234375 -0.296875 -0.4375q-0.15625 0.203125 -0.328125 0.4375q-0.15625 0.21875 -0.3125 0.453125q-0.140625 0.234375 -0.265625 0.453125q-0.125 0.203125 -0.21875 0.375l-0.765625 0q0.28125 -0.546875 0.671875 -1.109375q0.390625 -0.5625 0.765625 -1.078125l-1.375 -1.96875l0.84375 0l1.0 1.453125l1.0 -1.453125l0.78125 0l-1.34375 1.921875q0.390625 0.515625 0.78125 1.109375q0.40625 0.578125 0.6875 1.125l-0.8125 0z" fill-rule="nonzero"/><path fill="#000000" fill-opacity="0.0" d="m201.92429 201.32233l27.874008 0l0 29.070877l-27.874008 0z" fill-rule="evenodd"/><path fill="#000000" d="m212.73679 217.45546q0.703125 0 1.015625 -0.28125q0.3125 -0.28125 0.3125 -0.75q0 -0.296875 -0.140625 -0.5q-0.125 -0.21875 -0.328125 -0.34375q-0.203125 -0.125 -0.484375 -0.171875q-0.28125 -0.046875 -0.5625 -0.046875l-0.1875 0l0 -0.609375l0.265625 0q0.1875 0 0.390625 -0.046875q0.21875 -0.046875 0.390625 -0.140625q0.1875 -0.109375 0.296875 -0.28125q0.109375 -0.1875 0.109375 -0.453125q0 -0.234375 -0.078125 -0.390625q-0.078125 -0.15625 -0.21875 -0.25q-0.125 -0.109375 -0.296875 -0.15625q-0.171875 -0.046875 -0.359375 -0.046875q-0.390625 0 -0.65625 0.109375q-0.265625 0.109375 -0.453125 0.234375l-0.28125 -0.5625q0.09375 -0.0625 0.234375 -0.140625q0.15625 -0.078125 0.328125 -0.140625q0.1875 -0.0625 0.40625 -0.109375q0.21875 -0.046875 0.4375 -0.046875q0.453125 0 0.765625 0.109375q0.328125 0.109375 0.53125 0.3125q0.203125 0.1875 0.296875 0.453125q0.109375 0.265625 0.109375 0.578125q0 0.4375 -0.25 0.75q-0.234375 0.296875 -0.59375 0.453125q0.21875 0.078125 0.421875 0.203125q0.203125 0.109375 0.34375 0.296875q0.15625 0.171875 0.234375 0.421875q0.09375 0.234375 0.09375 0.53125q0 0.359375 -0.125 0.671875q-0.125 0.3125 -0.390625 0.53125q-0.25 0.21875 -0.640625 0.359375q-0.390625 0.125 -0.921875 0.125q-0.21875 0 -0.4375 -0.03125q-0.21875 -0.03125 -0.40625 -0.09375q-0.1875 -0.046875 -0.34375 -0.09375q-0.140625 -0.046875 -0.203125 -0.078125l0.140625 -0.640625q0.140625 0.0625 0.453125 0.171875q0.328125 0.09375 0.78125 0.09375zm5.8244476 0.546875q-0.078125 -0.171875 -0.21875 -0.390625q-0.125 -0.21875 -0.28125 -0.4375q-0.140625 -0.234375 -0.3125 -0.453125q-0.15625 -0.234375 -0.296875 -0.4375q-0.15625 0.203125 -0.328125 0.4375q-0.15625 0.21875 -0.3125 0.453125q-0.140625 0.234375 -0.265625 0.453125q-0.125 0.203125 -0.21875 0.375l-0.765625 0q0.28125 -0.546875 0.671875 -1.109375q0.390625 -0.5625 0.765625 -1.078125l-1.375 -1.96875l0.84375 0l1.0 1.453125l1.0 -1.453125l0.78125 0l-1.34375 1.921875q0.390625 0.515625 0.78125 1.109375q0.40625 0.578125 0.6875 1.125l-0.8125 0z" fill-rule="nonzero"/><path fill="#000000" fill-opacity="0.0" d="m57.69651 105.464066l27.874016 0l0 29.070862l-27.874016 0z" fill-rule="evenodd"/><path fill="#000000" d="m68.50901 121.59719q0.703125 0 1.015625 -0.28125q0.3125 -0.28125 0.3125 -0.75q0 -0.296875 -0.140625 -0.5q-0.125 -0.21875 -0.328125 -0.34375q-0.203125 -0.125 -0.484375 -0.171875q-0.28125 -0.046875 -0.5625 -0.046875l-0.1875 0l0 -0.609375l0.265625 0q0.1875 0 0.390625 -0.046875q0.21875 -0.046875 0.390625 -0.140625q0.1875 -0.109375 0.296875 -0.28125q0.109375 -0.1875 0.109375 -0.453125q0 -0.234375 -0.078125 -0.390625q-0.078125 -0.15625 -0.21875 -0.25q-0.125 -0.109375 -0.296875 -0.15625q-0.171875 -0.046875 -0.359375 -0.046875q-0.390625 0 -0.65625 0.109375q-0.265625 0.109375 -0.453125 0.234375l-0.28125 -0.5625q0.09375 -0.0625 0.234375 -0.140625q0.15625 -0.078125 0.328125 -0.140625q0.1875 -0.0625 0.40625 -0.109375q0.21875 -0.046875 0.4375 -0.046875q0.453125 0 0.765625 0.109375q0.328125 0.109375 0.53125 0.3125q0.203125 0.1875 0.296875 0.453125q0.109375 0.265625 0.109375 0.578125q0 0.4375 -0.25 0.75q-0.234375 0.296875 -0.59375 0.453125q0.21875 0.078125 0.421875 0.203125q0.203125 0.109375 0.34375 0.296875q0.15625 0.171875 0.234375 0.421875q0.09375 0.234375 0.09375 0.53125q0 0.359375 -0.125 0.671875q-0.125 0.3125 -0.390625 0.53125q-0.25 0.21875 -0.640625 0.359375q-0.390625 0.125 -0.921875 0.125q-0.21875 0 -0.4375 -0.03125q-0.21875 -0.03125 -0.40625 -0.09375q-0.1875 -0.046875 -0.34375 -0.09375q-0.140625 -0.046875 -0.203125 -0.078125l0.140625 -0.640625q0.140625 0.0625 0.453125 0.171875q0.328125 0.09375 0.78125 0.09375zm5.8244476 0.546875q-0.078125 -0.171875 -0.21875 -0.390625q-0.125 -0.21875 -0.28125 -0.4375q-0.140625 -0.234375 -0.3125 -0.453125q-0.15625 -0.234375 -0.296875 -0.4375q-0.15625 0.203125 -0.328125 0.4375q-0.15625 0.21875 -0.3125 0.453125q-0.140625 0.234375 -0.265625 0.453125q-0.125 0.203125 -0.21875 0.375l-0.765625 0q0.28125 -0.546875 0.671875 -1.109375q0.390625 -0.5625 0.765625 -1.078125l-1.375 -1.96875l0.84375 0l1.0 1.453125l1.0 -1.453125l0.78125 0l-1.34375 1.921875q0.390625 0.515625 0.78125 1.109375q0.40625 0.578125 0.6875 1.125l-0.8125 0z" fill-rule="nonzero"/><path fill="#000000" fill-opacity="0.0" d="m202.06332 153.35655l27.874008 0l0 29.070877l-27.874008 0z" fill-rule="evenodd"/><path fill="#000000" d="m212.87582 169.48969q0.703125 0 1.015625 -0.28125q0.3125 -0.28125 0.3125 -0.75q0 -0.296875 -0.140625 -0.5q-0.125 -0.21875 -0.328125 -0.34375q-0.203125 -0.125 -0.484375 -0.171875q-0.28125 -0.046875 -0.5625 -0.046875l-0.1875 0l0 -0.609375l0.265625 0q0.1875 0 0.390625 -0.046875q0.21875 -0.046875 0.390625 -0.140625q0.1875 -0.109375 0.296875 -0.28125q0.109375 -0.1875 0.109375 -0.453125q0 -0.234375 -0.078125 -0.390625q-0.078125 -0.15625 -0.21875 -0.25q-0.125 -0.109375 -0.296875 -0.15625q-0.171875 -0.046875 -0.359375 -0.046875q-0.390625 0 -0.65625 0.109375q-0.265625 0.109375 -0.453125 0.234375l-0.28125 -0.5625q0.09375 -0.0625 0.234375 -0.140625q0.15625 -0.078125 0.328125 -0.140625q0.1875 -0.0625 0.40625 -0.109375q0.21875 -0.046875 0.4375 -0.046875q0.453125 0 0.765625 0.109375q0.328125 0.109375 0.53125 0.3125q0.203125 0.1875 0.296875 0.453125q0.109375 0.265625 0.109375 0.578125q0 0.4375 -0.25 0.75q-0.234375 0.296875 -0.59375 0.453125q0.21875 0.078125 0.421875 0.203125q0.203125 0.109375 0.34375 0.296875q0.15625 0.171875 0.234375 0.421875q0.09375 0.234375 0.09375 0.53125q0 0.359375 -0.125 0.671875q-0.125 0.3125 -0.390625 0.53125q-0.25 0.21875 -0.640625 0.359375q-0.390625 0.125 -0.921875 0.125q-0.21875 0 -0.4375 -0.03125q-0.21875 -0.03125 -0.40625 -0.09375q-0.1875 -0.046875 -0.34375 -0.09375q-0.140625 -0.046875 -0.203125 -0.078125l0.140625 -0.640625q0.140625 0.0625 0.453125 0.171875q0.328125 0.09375 0.78125 0.09375zm5.8244476 0.546875q-0.078125 -0.171875 -0.21875 -0.390625q-0.125 -0.21875 -0.28125 -0.4375q-0.140625 -0.234375 -0.3125 -0.453125q-0.15625 -0.234375 -0.296875 -0.4375q-0.15625 0.203125 -0.328125 0.4375q-0.15625 0.21875 -0.3125 0.453125q-0.140625 0.234375 -0.265625 0.453125q-0.125 0.203125 -0.21875 0.375l-0.765625 0q0.28125 -0.546875 0.671875 -1.109375q0.390625 -0.5625 0.765625 -1.078125l-1.375 -1.96875l0.84375 0l1.0 1.453125l1.0 -1.453125l0.78125 0l-1.34375 1.921875q0.390625 0.515625 0.78125 1.109375q0.40625 0.578125 0.6875 1.125l-0.8125 0z" fill-rule="nonzero"/><path fill="#cc0000" d="m19.604973 251.44022l0 0c0 -8.749573 7.0929375 -15.842514 15.842518 -15.842514l0 0c4.2016983 0 8.231304 1.6691132 11.202354 4.640167c2.9710503 2.971054 4.640167 7.000656 4.640167 11.202347l0 0c0 8.749603 -7.0929375 15.842529 -15.842522 15.842529l0 0c-8.74958 0 -15.842518 -7.092926 -15.842518 -15.842529z" fill-rule="evenodd"/><path fill="#1155cc" d="m96.0 0.9587402l-19.2126 0l0 1.9212599l19.2126 0z" fill-rule="evenodd"/><path fill="#cc0000" d="m96.0 2.87874l-19.2126 0l0 1.9212601l19.2126 0z" fill-rule="evenodd"/><path fill="#000000" fill-opacity="0.0" d="m287.9987 95.99869l-48.0 0" fill-rule="evenodd"/><path stroke="#ffffff" stroke-width="1.0" stroke-linejoin="round" stroke-linecap="butt" d="m287.9987 95.99869l-48.0 0" fill-rule="evenodd"/><path fill="#000000" fill-opacity="0.0" d="m47.80971 192.14043l-48.0 0" fill-rule="evenodd"/><path stroke="#ffffff" stroke-width="1.0" stroke-linejoin="round" stroke-linecap="butt" d="m47.80971 192.14043l-48.0 0" fill-rule="evenodd"/><path fill="#000000" fill-opacity="0.0" d="m95.715225 239.62599l0.18897247 48.314957" fill-rule="evenodd"/><path stroke="#ffffff" stroke-width="1.0" stroke-linejoin="round" stroke-linecap="butt" d="m95.715225 239.62599l0.18897247 48.314957" fill-rule="evenodd"/><path fill="#000000" fill-opacity="0.0" d="m191.99869 -0.4553806l0.1889801 48.31496" fill-rule="evenodd"/><path stroke="#ffffff" stroke-width="1.0" stroke-linejoin="round" stroke-linecap="butt" d="m191.99869 -0.4553806l0.1889801 48.31496" fill-rule="evenodd"/><path fill="#000000" fill-opacity="0.0" d="m95.99869 23.998688l0 -23.905512" fill-rule="evenodd"/><path stroke="#ffffff" stroke-width="1.0" stroke-linejoin="round" stroke-linecap="butt" d="m95.99869 23.998688l0 -23.905512" fill-rule="evenodd"/><path fill="#000000" fill-opacity="0.0" d="m191.80971 288.08005l0 -23.905518" fill-rule="evenodd"/><path stroke="#ffffff" stroke-width="1.0" stroke-linejoin="round" stroke-linecap="butt" d="m191.80971 288.08005l0 -23.905518" fill-rule="evenodd"/><path fill="#000000" fill-opacity="0.0" d="m287.9987 239.56299l-24.15747 0.09449768" fill-rule="evenodd"/><path stroke="#ffffff" stroke-width="1.0" stroke-linejoin="round" stroke-linecap="butt" d="m287.9987 239.56299l-24.15747 0.09449768" fill-rule="evenodd"/><path fill="#000000" fill-opacity="0.0" d="m24.513123 47.654854l-24.15748 0.09449005" fill-rule="evenodd"/><path stroke="#ffffff" stroke-width="1.0" stroke-linejoin="round" stroke-linecap="butt" d="m24.513123 47.654854l-24.15748 0.09449005" fill-rule="evenodd"/><path fill="#1155cc" d="m211.02362 283.2l-19.2126 0l0 1.9212341l19.2126 0z" fill-rule="evenodd"/><path fill="#cc0000" d="m211.02362 285.12l-19.2126 0l0 1.9212646l19.2126 0z" fill-rule="evenodd"/><path fill="#1155cc" d="m287.04126 239.1411l0 -19.2126l-1.9212646 0l0 19.2126z" fill-rule="evenodd"/><path fill="#cc0000" d="m285.12125 239.1411l0 -19.2126l-1.9212341 0l0 19.2126z" fill-rule="evenodd"/><path fill="#1155cc" d="m4.80126 67.21302l0 -19.2126l-1.9212599 0l0 19.2126z" fill-rule="evenodd"/><path fill="#cc0000" d="m2.88126 67.21302l0 -19.2126l-1.9212599 0l0 19.2126z" fill-rule="evenodd"/></g></svg>