<svg version="1.1" viewBox="0.0 0.0 432.0 432.0" fill="none" stroke="none" stroke-linecap="square" stroke-miterlimit="10" xmlns:xlink="http://www.w3.org/1999/xlink" xmlns="http://www.w3.org/2000/svg"><clipPath id="p.0"><path d="m0 0l432.0 0l0 432.0l-432.0 0l0 -432.0z" clip-rule="nonzero"/></clipPath><g clip-path="url(#p.0)"><path fill="#000000" fill-opacity="0.0" d="m0 0l432.0 0l0 432.0l-432.0 0z" fill-rule="evenodd"/><path fill="#ff0000" d="m407.9997 216.0162l0 0c0 106.02997 -85.954254 191.98425 -191.98424 191.98425l0 0c-50.91739 0 -99.74934 -20.226868 -135.75336 -56.230896c-36.004036 -36.00403 -56.23089 -84.83597 -56.23089 -135.75336l0 0c0 -106.02998 85.95428 -191.98425 191.98425 -191.98425l0 0c106.02998 0 191.98424 85.95428 191.98424 191.98425zm-48.55664 0l0 0c0 -79.212875 -64.21472 -143.42761 -143.4276 -143.42761c-79.212875 0 -143.4276 64.21473 -143.4276 143.42761l0 0c0 79.21286 64.21472 143.42758 143.4276 143.42758l0 0c79.212875 0 143.4276 -64.21472 143.4276 -143.42758z" fill-rule="evenodd"/><path fill="#ff0000" d="m431.9997 240.00046l-120.0 0l0 -48.0l120.0 0z" fill-rule="evenodd"/><path fill="#ff0000" d="m119.99971 240.00046l-120.0 0l0 -48.0l120.0 0z" fill-rule="evenodd"/><path fill="#ff0000" d="m191.99971 120.00045l0 -120.0l48.0 0l0 120.0z" fill-rule="evenodd"/><path fill="#ff0000" d="m191.99971 432.00046l0 -120.0l48.0 0l0 120.0z" fill-rule="evenodd"/><path fill="#ff0000" d="m239.99971 120.00045l-24.0 76.78741l-24.0 -76.78741z" fill-rule="evenodd"/><path fill="#ff0000" d="m191.99971 312.00046l24.0 -76.787415l24.0 76.787415z" fill-rule="evenodd"/><path fill="#ff0000" d="m311.9997 240.00046l-76.787384 -24.0l76.787384 -24.0z" fill-rule="evenodd"/><path fill="#ff0000" d="m119.99971 192.00046l76.7874 24.0l-76.7874 24.0z" fill-rule="evenodd"/><path fill="#ff0000" d="m225.606 216.00046l0 0c0 5.3054047 -4.300888 9.606293 -9.606293 9.606293l0 0c-2.5477448 0 -4.99115 -1.012085 -6.792679 -2.813614c-1.8015289 -1.8015442 -2.8136292 -4.244934 -2.8136292 -6.792679l0 0c0 -5.30542 4.300888 -9.606308 9.606308 -9.606308l0 0c5.3054047 0 9.606293 4.300888 9.606293 9.606308z" fill-rule="evenodd"/></g></svg>